<?xml version="1.0" encoding="UTF-8"?>
<svg version="1.1" xmlns="http://www.w3.org/2000/svg" width="500" height="500">
<path d="M0 0 C1.00287048 -0.00570007 2.00574097 -0.01140015 3.03900146 -0.01727295 C5.15684981 -0.02667466 7.27471246 -0.03323759 9.39257812 -0.03710938 C12.55887073 -0.04672168 15.7244868 -0.07775315 18.890625 -0.109375 C32.30552816 -0.17924497 45.1546399 0.84105467 58.359375 3.203125 C59.97489258 3.48542969 59.97489258 3.48542969 61.62304688 3.7734375 C93.69629145 9.82410118 125.46052713 22.61217843 152.359375 41.203125 C152.95169922 41.60450684 153.54402344 42.00588867 154.15429688 42.41943359 C163.0421843 48.45870048 171.30508567 55.09847906 179.359375 62.203125 C180.83857422 63.49669922 180.83857422 63.49669922 182.34765625 64.81640625 C202.12262876 82.49601743 218.32719394 103.10983007 231.359375 126.203125 C231.81795898 127.01330078 232.27654297 127.82347656 232.74902344 128.65820312 C251.33244883 161.87495383 263.35028656 200.26766424 263.5625 238.55859375 C263.56955963 239.41451614 263.57661926 240.27043854 263.58389282 241.15229797 C263.81226788 276.97899086 263.81226788 276.97899086 260.359375 294.203125 C260.06135986 295.73066406 260.06135986 295.73066406 259.75732422 297.2890625 C250.21291989 344.98963607 228.09630924 388.13691022 194.359375 423.203125 C193.75963867 423.83009277 193.15990234 424.45706055 192.54199219 425.10302734 C183.69899431 434.29983415 174.63581728 442.64596013 164.359375 450.203125 C163.25362775 451.03869408 162.1481582 451.87463077 161.04296875 452.7109375 C136.68680186 470.88474062 108.48129929 483.86246853 79.359375 492.203125 C77.58259117 492.71943985 77.58259117 492.71943985 75.76991272 493.2461853 C63.86426021 496.48638729 52.38773235 496.82387027 40.10546875 496.8046875 C37.99007338 496.81249143 35.87468107 496.82116674 33.7592926 496.83065796 C29.34780682 496.84547771 24.93664139 496.84507891 20.52514648 496.83447266 C16.05175521 496.82521787 11.57945214 496.83902267 7.10620117 496.87548828 C-39.99890689 497.25647203 -39.99890689 497.25647203 -59.640625 490.203125 C-61.44415481 489.61672211 -63.24953344 489.03597743 -65.05664062 488.46069336 C-91.33766815 480.06951239 -115.66262669 466.78519794 -137.640625 450.203125 C-138.27178223 449.73422852 -138.90293945 449.26533203 -139.55322266 448.78222656 C-158.61513737 434.49688163 -176.1026524 416.79353139 -189.640625 397.203125 C-190.14062012 396.49414062 -190.64061523 395.78515625 -191.15576172 395.0546875 C-212.51174634 364.67932943 -226.75795264 330.71063325 -233.640625 294.203125 C-233.80433594 293.37780273 -233.96804687 292.55248047 -234.13671875 291.70214844 C-239.31419418 264.58458601 -239.05120089 233.25017407 -233.640625 206.203125 C-233.35818469 204.63172389 -233.07694453 203.06010663 -232.796875 201.48828125 C-224.65331828 157.83665401 -203.80558092 116.13322162 -173.72265625 83.46875 C-171.8162206 81.39420464 -169.9729689 79.28046569 -168.140625 77.140625 C-160.98688012 68.96960447 -153.16276031 61.91856763 -144.640625 55.203125 C-143.65320313 54.41035156 -142.66578125 53.61757813 -141.6484375 52.80078125 C-102.15452116 21.62914903 -50.73633623 0.22997072 0 0 Z " fill="#2E95C9" transform="translate(236.640625,3.796875)"/>
<path d="M0 0 C3.98096543 1.28950293 7.17210291 0.97258028 11.07421875 -0.328125 C10.74421875 5.941875 10.41421875 12.211875 10.07421875 18.671875 C8.08398837 16.68164462 7.51277262 15.51404285 6.44921875 12.984375 C3.86541471 7.6210242 -0.58911505 3.3402081 -5.92578125 0.671875 C-12.27109396 0.06866429 -17.40153105 0.4024208 -22.92578125 3.671875 C-26.12967301 7.1858208 -26.50447422 10.73225713 -26.34375 15.33203125 C-25.20677592 21.69696091 -20.55204376 26.45683582 -15.92578125 30.671875 C-15.21550781 31.32800781 -14.50523437 31.98414063 -13.7734375 32.66015625 C-9.40741643 36.65372055 -4.95657436 40.50433754 -0.36328125 44.234375 C0.55195313 44.98203125 1.4671875 45.7296875 2.41015625 46.5 C4.09534986 47.87385286 5.78726212 49.2395406 7.48828125 50.59375 C15.26616632 57.06195683 23.29266409 66.39251123 24.41015625 76.80078125 C24.54707085 88.83557465 21.98887021 100.38437468 13.48046875 109.3515625 C3.89304683 118.1109798 -7.21476503 120.33517407 -19.87890625 119.984375 C-31.41099747 119.33223035 -39.949682 114.07550169 -47.67578125 105.859375 C-55.0653968 96.81259166 -56.07678986 88.16355581 -55.19189453 76.73632812 C-54.19690804 69.01742375 -49.81911465 63.78472084 -43.8984375 59.0703125 C-36.13046915 53.56351514 -28.2029924 52.28532454 -18.92578125 52.671875 C-17.67050193 47.00249424 -17.67050193 47.00249424 -19.42578125 41.671875 C-20.80649343 40.01502038 -22.20076346 38.36820984 -23.6484375 36.76953125 C-30.01199323 29.73043882 -32.54203961 24.17217887 -32.27734375 14.546875 C-31.62630705 9.22284154 -29.46554118 6.1700198 -25.61328125 2.421875 C-16.70417431 -3.37940394 -9.68837818 -3.58453084 0 0 Z " fill="#38A3CE" transform="translate(217.92578125,171.328125)"/>
<path d="M0 0 C11.05594738 -0.44670494 20.60034031 -0.31861677 31 4 C32.02738281 4.42410156 33.05476563 4.84820312 34.11328125 5.28515625 C41.5988151 8.69977715 47.24045578 13.17200619 53 19 C53.68707031 19.66515625 54.37414062 20.3303125 55.08203125 21.015625 C69.69673287 36.12036592 76.67314086 58.3624619 82.98046875 77.8605957 C83.34398437 78.98425537 83.7075 80.10791504 84.08203125 81.265625 C84.56506714 82.77817871 84.56506714 82.77817871 85.05786133 84.32128906 C85.88474976 86.67231779 86.82429863 88.80709681 88 91 C89.78149545 85.56081878 91.55948969 80.12050916 93.33447266 74.67919922 C93.93673936 72.83449645 94.5399045 70.99008671 95.14404297 69.14599609 C102.69934124 48.99643744 102.69934124 48.99643744 105 28 C103.68 27.34 102.36 26.68 101 26 C101 25.67 101 25.34 101 25 C106.61 25 112.22 25 118 25 C116.62100451 27.75799098 114.62327638 28.43852596 112 30 C109.545847 32.11132855 108.49408279 33.80837708 107.5612793 36.89453125 C107.32060226 37.6738501 107.07992523 38.45316895 106.83195496 39.25610352 C106.58190201 40.09971436 106.33184906 40.9433252 106.07421875 41.8125 C105.80414505 42.69542725 105.53407135 43.57835449 105.2558136 44.48803711 C104.39077644 47.32273161 103.53881496 50.16115772 102.6875 53 C101.84738518 55.76949199 101.00460791 58.53816107 100.16116333 61.30664062 C99.60272945 63.14543053 99.04778136 64.98528264 98.49630737 66.82617188 C97.13899009 71.34351614 95.73510275 75.83329825 94.20947266 80.296875 C93.92546097 81.14241943 93.64144928 81.98796387 93.34883118 82.85913086 C92.81600612 84.43542011 92.26926208 86.00711008 91.70524597 87.57250977 C89.34092048 94.63042936 89.95741756 101.02743477 92.56640625 107.98046875 C92.88311279 108.82794678 93.19981934 109.6754248 93.52612305 110.54858398 C93.86812744 111.41942627 94.21013184 112.29026855 94.5625 113.1875 C94.91675049 114.10152588 95.27100098 115.01555176 95.63598633 115.95727539 C101.55893189 130.82673153 109.14304685 145.0776179 124.33203125 152.07421875 C128.92810825 153.72429893 133.38270587 154.41255086 138.25 154.69140625 C138.8275 154.79324219 139.405 154.89507812 140 155 C140.33 155.66 140.66 156.32 141 157 C133.74744187 157.41663632 127.78522269 156.59904919 121 154 C120.20980469 153.70609375 119.41960937 153.4121875 118.60546875 153.109375 C97.62623348 144.02628122 86.21384571 121.32384641 78.20336914 101.21557617 C71.82451096 84.71875447 66.51080398 67.80160202 61 51 C59.17045843 53.74431236 58.32090222 55.72349443 57.3359375 58.81933594 C57.02221191 59.7975531 56.70848633 60.77577026 56.38525391 61.78363037 C56.05187012 62.8398761 55.71848633 63.89612183 55.375 64.984375 C55.02743652 66.07333069 54.67987305 67.16228638 54.32177734 68.28424072 C53.21010656 71.77144015 52.10511538 75.2607183 51 78.75 C50.25561708 81.08606779 49.51083016 83.42200688 48.765625 85.7578125 C48.05172608 87.99988628 47.33817317 90.24207027 46.625 92.484375 C46.12492432 94.05659821 46.12492432 94.05659821 45.61474609 95.6605835 C44.00169551 100.75501064 42.43219898 105.85167866 41 111 C40.34 111 39.68 111 39 111 C38.78609619 110.36763428 38.57219238 109.73526855 38.35180664 109.08374023 C35.28276764 100.03894732 32.15140497 91.01633772 29 82 C28.67143005 81.05858154 28.34286011 80.11716309 28.0043335 79.1472168 C25.81372525 72.87712768 23.60407157 66.61413527 21.37545776 60.35745239 C20.62845692 58.25345774 19.88632339 56.14772831 19.14920044 54.04025269 C18.09720437 51.03622309 17.02725349 48.03914455 15.953125 45.04296875 C15.64392624 44.14809753 15.33472748 43.25322632 15.01615906 42.33123779 C13.10764081 37.07745265 10.79601405 32.94067576 7.2711792 28.59223938 C6 27 6 27 5 25 C12.92 25 20.84 25 29 25 C27.02 27.97 27.02 27.97 25 31 C25.14464269 36.24851764 26.83305915 41.06126337 28.51171875 45.99609375 C28.7624263 46.74729996 29.01313385 47.49850616 29.2714386 48.2724762 C29.80237953 49.85928271 30.33622099 51.44512135 30.87280273 53.0300293 C31.67391892 55.39736723 32.4656874 57.76766162 33.25585938 60.13867188 C36.61838455 70.17834036 40.21317831 80.11289426 44 90 C46.01667314 86.11292147 47.39089279 82.09059999 48.75 77.9375 C49.006604 77.1539917 49.26320801 76.3704834 49.52758789 75.56323242 C50.07122441 73.89965517 50.61359081 72.2356624 51.15478516 70.57128906 C52.00460645 67.98598637 52.88111876 65.41089968 53.76171875 62.8359375 C54.320933 61.16166545 54.87954448 59.48719194 55.4375 57.8125 C55.70852539 57.03575928 55.97955078 56.25901855 56.25878906 55.45874023 C58.34754003 49.07975011 58.15762949 44.67034235 55.43359375 38.38671875 C54.78277628 37.14590633 54.11681069 35.91294516 53.4375 34.6875 C53.08034912 34.03450928 52.72319824 33.38151855 52.35522461 32.70874023 C44.21428677 18.21076386 33.32148029 7.45550375 17.125 2.75 C11.52062906 1.50718971 5.71557958 1.3310854 0 1 C0 0.67 0 0.34 0 0 Z " fill="#EFF9FC" transform="translate(235,207)"/>
<path d="M0 0 C3.98096543 1.28950293 7.17210291 0.97258028 11.07421875 -0.328125 C10.74421875 5.941875 10.41421875 12.211875 10.07421875 18.671875 C8.08398837 16.68164462 7.51277262 15.51404285 6.44921875 12.984375 C3.86541471 7.6210242 -0.58911505 3.3402081 -5.92578125 0.671875 C-12.27109396 0.06866429 -17.40153105 0.4024208 -22.92578125 3.671875 C-26.12967301 7.1858208 -26.50447422 10.73225713 -26.34375 15.33203125 C-25.20677592 21.69696091 -20.55204376 26.45683582 -15.92578125 30.671875 C-15.21550781 31.32800781 -14.50523437 31.98414063 -13.7734375 32.66015625 C-9.40741643 36.65372055 -4.95657436 40.50433754 -0.36328125 44.234375 C0.55195313 44.98203125 1.4671875 45.7296875 2.41015625 46.5 C4.09534986 47.87385286 5.78726212 49.2395406 7.48828125 50.59375 C15.26616632 57.06195683 23.29266409 66.39251123 24.41015625 76.80078125 C24.54707085 88.83557465 21.98887021 100.38437468 13.48046875 109.3515625 C3.89304683 118.1109798 -7.21476503 120.33517407 -19.87890625 119.984375 C-31.41099747 119.33223035 -39.949682 114.07550169 -47.67578125 105.859375 C-55.0653968 96.81259166 -56.07678986 88.16355581 -55.19189453 76.73632812 C-54.19690804 69.01742375 -49.81911465 63.78472084 -43.8984375 59.0703125 C-36.13046915 53.56351514 -28.2029924 52.28532454 -18.92578125 52.671875 C-21.74607717 54.55207228 -23.52956321 55.20896092 -26.73828125 56.046875 C-34.22000548 58.22496066 -39.17505581 61.7675567 -43.0234375 68.62890625 C-47.5008451 77.27880838 -48.39968712 86.20751611 -46.20703125 95.82421875 C-43.11992976 104.89880336 -38.47199857 110.28282928 -29.92578125 114.671875 C-22.40163512 117.83201638 -12.17008241 118.15252454 -4.42578125 115.421875 C2.95421307 111.73187784 8.71455924 107.57904202 11.88671875 99.796875 C14.28786943 91.59410013 14.73037965 81.1681115 11.13671875 73.296875 C7.87034591 67.79755802 3.52859136 63.22340674 -0.92578125 58.671875 C-1.6115625 57.95902344 -2.29734375 57.24617188 -3.00390625 56.51171875 C-6.17438726 53.27258559 -9.42975114 50.19291083 -12.86328125 47.234375 C-31.24426085 31.31384149 -31.24426085 31.31384149 -32.1640625 21 C-32.32692346 14.24555612 -32.09542953 10.08114844 -27.92578125 4.671875 C-19.49701414 -3.52908759 -10.40769914 -3.85066705 0 0 Z " fill="#F2FBFC" transform="translate(217.92578125,171.328125)"/>
<path d="M0 0 C5.97624498 0.60734197 11.24517342 2.25278258 16.875 4.3125 C18.29727905 4.83275757 18.29727905 4.83275757 19.74829102 5.36352539 C49.00120581 16.37714418 75.65469165 32.24609643 99 53 C99.98226562 53.85980469 100.96453125 54.71960938 101.9765625 55.60546875 C121.7621385 73.27675496 137.96738517 93.90593642 151 117 C151.68787598 118.21526367 151.68787598 118.21526367 152.38964844 119.45507812 C171.01841994 152.75288225 183.45409836 191.68811446 183.0625 230.125 C183.05798828 230.98609375 183.05347656 231.8471875 183.04882812 232.734375 C183.03722494 234.82294785 183.0192984 236.91148407 183 239 C182.67 239 182.34 239 182 239 C181.95101562 238.07316406 181.90203125 237.14632812 181.8515625 236.19140625 C181.73941406 234.39509766 181.73941406 234.39509766 181.625 232.5625 C181.55539062 231.36753906 181.48578125 230.17257813 181.4140625 228.94140625 C181.27742187 227.97074219 181.14078125 227.00007812 181 226 C180.34 225.67 179.68 225.34 179 225 C179 224.34 179 223.68 179 223 C179.66 222.67 180.32 222.34 181 222 C181 221.34 181 220.68 181 220 C180.34 220 179.68 220 179 220 C179.02320313 219.11699219 179.04640625 218.23398438 179.0703125 217.32421875 C179.30683683 203.71239904 179.30683683 203.71239904 175 191 C174.67 190.34 174.34 189.68 174 189 C173.01 188.67 172.02 188.34 171 188 C170.97302863 185.39576408 170.95317511 182.79180756 170.9375 180.1875 C170.92912109 179.44951172 170.92074219 178.71152344 170.91210938 177.95117188 C170.89740172 174.70077932 170.96468298 172.10595105 172 169 C171.34 169 170.68 169 170 169 C169.566875 167.576875 169.566875 167.576875 169.125 166.125 C168.23174891 162.94788422 168.23174891 162.94788422 166 161 C163.57434834 156.14869669 163.54548501 150.32718338 163 145 C162.38125 145.185625 161.7625 145.37125 161.125 145.5625 C159 146 159 146 157 145 C156.67 145.66 156.34 146.32 156 147 C155.34 146.01 154.68 145.02 154 144 C155.28965176 142.62437146 156.62689293 141.29233607 158 140 C158.66 140 159.32 140 160 140 C159.34 139.01 158.68 138.02 158 137 C157.34 137.66 156.68 138.32 156 139 C155 136 155 136 154.5 132.9375 C154.15956228 130.07680095 154.15956228 130.07680095 153 128 C152.34 128.33 151.68 128.66 151 129 C151 129.66 151 130.32 151 131 C149.68 130.67 148.36 130.34 147 130 C147.144375 129.484375 147.28875 128.96875 147.4375 128.4375 C149.06177204 121.70068752 149.06177204 121.70068752 148 115 C145.23735711 114.40267181 142.83967231 114 140 114 C140 111 140 108 140 105 C138.35819909 101.87276017 136.62002725 99.37050084 134 97 C133.67 97.66 133.34 98.32 133 99 C132.34 99 131.68 99 131 99 C131 96.69 131 94.38 131 92 C130.01 91.67 129.02 91.34 128 91 C127.67 90.34 127.34 89.68 127 89 C126.29875 88.195625 125.5975 87.39125 124.875 86.5625 C124.25625 85.716875 123.6375 84.87125 123 84 C123.495 82.515 123.495 82.515 124 81 C123.34 81 122.68 81 122 81 C121.67 81.66 121.34 82.32 121 83 C119.02 83 117.04 83 115 83 C115.226875 82.4225 115.45375 81.845 115.6875 81.25 C116.2562178 78.90979378 116.2562178 78.90979378 114.6875 76.875 C113.49470503 75.54967226 112.260804 74.260804 111 73 C110.28072705 70.68234271 109.6090107 68.34904126 109 66 C108.071875 66.2784375 108.071875 66.2784375 107.125 66.5625 C105 67 105 67 103 66 C103.33 65.34 103.66 64.68 104 64 C104.09245003 62.53774984 104.09245003 62.53774984 102 60 C102 59.34 102 58.68 102 58 C99.69 58 97.38 58 95 58 C95 57.01 95 56.02 95 55 C94.34 55 93.68 55 93 55 C93 56.32 93 57.64 93 59 C92.34 59 91.68 59 91 59 C91 56.03 91 53.06 91 50 C87.10540926 49.78918149 87.10540926 49.78918149 84 51 C83.3125 49.1875 83.3125 49.1875 83 47 C84.4375 45.25 84.4375 45.25 86 44 C83.36 43.67 80.72 43.34 78 43 C78 42.34 78 41.68 78 41 C77.01 41 76.02 41 75 41 C75 39.68 75 38.36 75 37 C68.15262188 34.16016764 68.15262188 34.16016764 61 35 C60.67 34.34 60.34 33.68 60 33 C60.33 32.01 60.66 31.02 61 30 C60.34 29.67 59.68 29.34 59 29 C59.495 28.505 59.495 28.505 60 28 C56.28400809 27.79913557 55.22791555 27.8480563 52 30 C51.505 28.515 51.505 28.515 51 27 C50.175 26.67 49.35 26.34 48.5 26 C47.675 25.67 46.85 25.34 46 25 C45.505 23.515 45.505 23.515 45 22 C45.495 21.505 45.495 21.505 46 21 C45.28972656 20.73445313 44.57945312 20.46890625 43.84765625 20.1953125 C42.92855469 19.84210937 42.00945312 19.48890625 41.0625 19.125 C40.14597656 18.77695312 39.22945313 18.42890625 38.28515625 18.0703125 C36 17 36 17 35 15 C35 15.99 35 16.98 35 18 C34.01 18.33 33.02 18.66 32 19 C32 18.34 32 17.68 32 17 C30.35 17 28.7 17 27 17 C27 15.68 27 14.36 27 13 C26.34 13 25.68 13 25 13 C24.67 12.34 24.34 11.68 24 11 C22.35 11 20.7 11 19 11 C19 10.34 19 9.68 19 9 C16.36 9.33 13.72 9.66 11 10 C11 9.34 11 8.68 11 8 C11.66 8 12.32 8 13 8 C9.1713614 3.78849754 5.58295988 2.76131271 0 2 C0 1.34 0 0.68 0 0 Z " fill="#0951A8" transform="translate(317,13)"/>
<path d="M0 0 C6.67100124 13.34200248 -6.39463526 46.56876209 -10.8190918 59.98950195 C-23.00251267 95.37801296 -42.04421272 127.02151982 -68 154 C-68.59973633 154.62696777 -69.19947266 155.25393555 -69.81738281 155.89990234 C-78.66038069 165.09670915 -87.72355772 173.44283513 -98 181 C-99.10574725 181.83556908 -100.2112168 182.67150577 -101.31640625 183.5078125 C-120.70932653 197.97819762 -143.12749652 209.65344921 -165.875 217.8125 C-166.56416504 218.06104736 -167.25333008 218.30959473 -167.96337891 218.56567383 C-171.23463941 219.66770016 -172.6381814 220.1206062 -176 219 C-171.73688282 214.87010523 -168.71241466 214.38728235 -163 214 C-163 213.34 -163 212.68 -163 212 C-163 210.33333333 -163 208.66666667 -163 207 C-161.1128125 206.9690625 -161.1128125 206.9690625 -159.1875 206.9375 C-158.47980469 206.92589844 -157.77210938 206.91429687 -157.04296875 206.90234375 C-155 207 -155 207 -152 208 C-148.84979639 207.11680706 -148.84979639 207.11680706 -146 206 C-146 204.68 -146 203.36 -146 202 C-145.67 201.01 -145.34 200.02 -145 199 C-141.33333333 199 -137.66666667 199 -134 199 C-132.66018514 198.6937566 -131.32488113 198.36548445 -130 198 C-129.9071875 196.824375 -129.9071875 196.824375 -129.8125 195.625 C-129.544375 194.75875 -129.27625 193.8925 -129 193 C-126.4375 191.6875 -126.4375 191.6875 -124 191 C-124 191.66 -124 192.32 -124 193 C-123.05125 192.67 -122.1025 192.34 -121.125 192 C-118 191 -118 191 -116 191 C-114.5393715 188.35261084 -114 187.10551666 -114 184 C-113 183 -113 183 -109.4375 182.9375 C-108.303125 182.958125 -107.16875 182.97875 -106 183 C-105.67 181.35 -105.34 179.7 -105 178 C-105.99 177.67 -106.98 177.34 -108 177 C-106.68 177 -105.36 177 -104 177 C-103.67 176.34 -103.34 175.68 -103 175 C-102.2575 175.20625 -101.515 175.4125 -100.75 175.625 C-97.60883494 176.05334069 -96.68120844 175.51935145 -94 174 C-93.01 174 -92.02 174 -91 174 C-91 171.36 -91 168.72 -91 166 C-90.38125 166.350625 -89.7625 166.70125 -89.125 167.0625 C-88.42375 167.371875 -87.7225 167.68125 -87 168 C-84.66110011 167.11762697 -84.66110011 167.11762697 -83.9375 164.0625 C-83.4734375 162.5465625 -83.4734375 162.5465625 -83 161 C-82.67 160.34 -82.34 159.68 -82 159 C-80.02 159 -78.04 159 -76 159 C-75.34 156.69 -74.68 154.38 -74 152 C-72.35 151.67 -70.7 151.34 -69 151 C-68.9175 150.4225 -68.835 149.845 -68.75 149.25 C-67.79468987 146.3840696 -66.21530827 145.0009236 -64 143 C-64 143.66 -64 144.32 -64 145 C-63.34 145 -62.68 145 -62 145 C-62 144.34 -62 143.68 -62 143 C-61.34 143 -60.68 143 -60 143 C-58.74335022 140.09399739 -58 138.20395416 -58 135 C-57.1028125 134.9690625 -57.1028125 134.9690625 -56.1875 134.9375 C-53.56685398 134.09543384 -53.56685398 134.09543384 -52.25 130.4375 C-51.8375 129.303125 -51.425 128.16875 -51 127 C-50.34 127 -49.68 127 -49 127 C-49.66 125.68 -50.32 124.36 -51 123 C-49.68 121.68 -48.36 120.36 -47 119 C-46.01 119.33 -45.02 119.66 -44 120 C-43.6596875 118.3603125 -43.6596875 118.3603125 -43.3125 116.6875 C-41.76389791 112.33666556 -40.79902771 112.2238211 -37 110 C-35.69237141 107.71937219 -34.89281709 105.49048979 -34 103 C-33.34 103 -32.68 103 -32 103 C-32.99 99.535 -32.99 99.535 -34 96 C-33.030625 95.731875 -32.06125 95.46375 -31.0625 95.1875 C-29.5465625 94.5996875 -29.5465625 94.5996875 -28 94 C-26.66666667 91 -26.66666667 91 -28 88 C-27.67 87.34 -27.34 86.68 -27 86 C-26.95977609 83.6670134 -26.95679753 81.33293334 -27 79 C-25 79 -23 79 -21 79 C-20.01 74.05 -19.02 69.1 -18 64 C-16.68 64 -15.36 64 -14 64 C-14 63.01 -14 62.02 -14 61 C-14.99 60.67 -15.98 60.34 -17 60 C-15.625 58 -15.625 58 -14 56 C-13.34 56 -12.68 56 -12 56 C-11.86722656 55.31292969 -11.73445312 54.62585938 -11.59765625 53.91796875 C-11.42105469 53.01691406 -11.24445313 52.11585938 -11.0625 51.1875 C-10.88847656 50.29417969 -10.71445312 49.40085937 -10.53515625 48.48046875 C-10 46 -10 46 -9 43 C-8.90642308 41.14772748 -8.87006091 39.2921282 -8.875 37.4375 C-8.87242187 36.46683594 -8.86984375 35.49617188 -8.8671875 34.49609375 C-8.83349047 32.00047047 -8.83349047 32.00047047 -10 30 C-9.34 30 -8.68 30 -8 30 C-3.68947261 21.54761802 -2.73323376 14.61457231 -3.1875 5.16015625 C-3.125625 4.11730469 -3.06375 3.07445312 -3 2 C-2.01 1.34 -1.02 0.68 0 0 Z M-161 211 C-160 213 -160 213 -160 213 Z " fill="#0B50A3" transform="translate(499,273)"/>
<path d="M0 0 C0 0.66 0 1.32 0 2 C-1.32 2.33 -2.64 2.66 -4 3 C-4 3.66 -4 4.32 -4 5 C-2.68 5 -1.36 5 0 5 C0 5.66 0 6.32 0 7 C-0.99 7.33 -1.98 7.66 -3 8 C-5.5625 6.625 -5.5625 6.625 -8 5 C-8.99 4.505 -8.99 4.505 -10 4 C-10 5.65 -10 7.3 -10 9 C-11.32 9 -12.64 9 -14 9 C-14.66 9.33 -15.32 9.66 -16 10 C-16 9.34 -16 8.68 -16 8 C-17.32 8 -18.64 8 -20 8 C-20.33 8.99 -20.66 9.98 -21 11 C-23.68177106 14.32028798 -26.16040095 14.74450013 -30.25 15.3125 C-34.72175199 16.430438 -39.30700268 18.30286332 -42.59765625 21.6015625 C-44.54270161 23.5411899 -46.32268081 23.5018941 -49 24 C-53.21010044 25.84191894 -56.46242581 28.09737503 -60 31 C-60.9075 31.515625 -61.815 32.03125 -62.75 32.5625 C-65.30341851 33.86159181 -65.30341851 33.86159181 -66 37 C-67.0725 37.33 -68.145 37.66 -69.25 38 C-76.76908688 40.51091104 -83.238557 47.19571596 -88.71484375 52.734375 C-90 54 -90 54 -92.75 55.75 C-96.99909266 58.69167954 -101.64598315 62.29196629 -104 67 C-104.66 67 -105.32 67 -106 67 C-106.26167969 67.56847656 -106.52335937 68.13695313 -106.79296875 68.72265625 C-110.09406086 74.95093037 -115.05693317 80.05693317 -120 85 C-121.87504279 87.62505991 -123.60177469 90.12390432 -124.9375 93.0625 C-126.47089726 95.858695 -128.74491871 97.74491871 -131 100 C-134.78840804 104.4824052 -137.89647689 108.49503526 -140 114 C-140.66 114.969375 -141.32 115.93875 -142 116.9375 C-143.96964803 119.95352354 -144.89174243 122.60134344 -146 126 C-146.515625 126.680625 -147.03125 127.36125 -147.5625 128.0625 C-149.17489638 129.93570787 -149.17489638 129.93570787 -149.4375 132.4375 C-150 135 -150 135 -152 137.375 C-154.45697619 140.59978125 -154.48638363 143.03781654 -155 147 C-155.47308594 147.46921875 -155.94617188 147.9384375 -156.43359375 148.421875 C-158.38851268 150.39141926 -158.7886559 151.95745964 -159.5 154.625 C-160.39024586 157.83542029 -161.32088898 160.98641768 -162.4375 164.125 C-164.12292718 169.08370416 -165.33509781 174.15154347 -166.55444336 179.24072266 C-167.28834918 182.27847403 -168.07833983 185.22241937 -169.1171875 188.171875 C-170.00448247 191.01435977 -170.17961024 193.10663761 -170.0625 196.0625 C-169.93494155 199.57313036 -170.22177008 202.57259017 -171 206 C-171.35562341 207.70803068 -171.70979977 209.41636331 -172.0625 211.125 C-172.32740234 212.39730469 -172.32740234 212.39730469 -172.59765625 213.6953125 C-173.08598765 216.10262667 -173.08598765 216.10262667 -173 219 C-174 221.1875 -174 221.1875 -175 223 C-175.33 223 -175.66 223 -176 223 C-175.07692876 168.20313435 -149.95181453 112.29936517 -113.08203125 72.265625 C-111.1755956 70.19107964 -109.3323439 68.07734069 -107.5 65.9375 C-100.34625512 57.76647947 -92.52213531 50.71544263 -84 44 C-83.01257813 43.20722656 -82.02515625 42.41445313 -81.0078125 41.59765625 C-60.88836132 25.71784005 -26.66204456 0 0 0 Z " fill="#6CD1D8" transform="translate(176,15)"/>
<path d="M0 0 C5.97624498 0.60734197 11.24517342 2.25278258 16.875 4.3125 C18.29727905 4.83275757 18.29727905 4.83275757 19.74829102 5.36352539 C56.65089321 19.25722439 88.37074922 41.07043127 116 69 C115.67 69.66 115.34 70.32 115 71 C114.52949219 70.62746094 114.05898438 70.25492187 113.57421875 69.87109375 C112.64029297 69.16146484 112.64029297 69.16146484 111.6875 68.4375 C110.76517578 67.72400391 110.76517578 67.72400391 109.82421875 66.99609375 C109.22222656 66.66738281 108.62023437 66.33867188 108 66 C106.515 66.495 106.515 66.495 105 67 C104.34 66.67 103.68 66.34 103 66 C103.33 65.34 103.66 64.68 104 64 C104.09245003 62.53774984 104.09245003 62.53774984 102 60 C102 59.34 102 58.68 102 58 C99.69 58 97.38 58 95 58 C95 57.01 95 56.02 95 55 C94.34 55 93.68 55 93 55 C93 56.32 93 57.64 93 59 C92.34 59 91.68 59 91 59 C91 56.03 91 53.06 91 50 C87.10540926 49.78918149 87.10540926 49.78918149 84 51 C83.3125 49.1875 83.3125 49.1875 83 47 C84.4375 45.25 84.4375 45.25 86 44 C83.36 43.67 80.72 43.34 78 43 C78 42.34 78 41.68 78 41 C77.01 41 76.02 41 75 41 C75 39.68 75 38.36 75 37 C68.15262188 34.16016764 68.15262188 34.16016764 61 35 C60.67 34.34 60.34 33.68 60 33 C60.33 32.01 60.66 31.02 61 30 C60.34 29.67 59.68 29.34 59 29 C59.495 28.505 59.495 28.505 60 28 C56.28400809 27.79913557 55.22791555 27.8480563 52 30 C51.505 28.515 51.505 28.515 51 27 C50.175 26.67 49.35 26.34 48.5 26 C47.675 25.67 46.85 25.34 46 25 C45.505 23.515 45.505 23.515 45 22 C45.495 21.505 45.495 21.505 46 21 C45.28972656 20.73445313 44.57945312 20.46890625 43.84765625 20.1953125 C42.92855469 19.84210937 42.00945312 19.48890625 41.0625 19.125 C40.14597656 18.77695312 39.22945313 18.42890625 38.28515625 18.0703125 C36 17 36 17 35 15 C35 15.99 35 16.98 35 18 C34.01 18.33 33.02 18.66 32 19 C32 18.34 32 17.68 32 17 C30.35 17 28.7 17 27 17 C27 15.68 27 14.36 27 13 C26.34 13 25.68 13 25 13 C24.67 12.34 24.34 11.68 24 11 C22.35 11 20.7 11 19 11 C19 10.34 19 9.68 19 9 C16.36 9.33 13.72 9.66 11 10 C11 9.34 11 8.68 11 8 C11.66 8 12.32 8 13 8 C9.1713614 3.78849754 5.58295988 2.76131271 0 2 C0 1.34 0 0.68 0 0 Z " fill="#175FA7" transform="translate(317,13)"/>
<path d="M0 0 C0 0.33 0 0.66 0 1 C-1.05058594 1.15855469 -2.10117188 1.31710938 -3.18359375 1.48046875 C-13.93291913 3.21695734 -22.42441267 5.31085247 -29.7109375 13.9609375 C-35.03428512 22.38150556 -35.33485272 31.30611811 -34 41 C-31.35464436 49.63023825 -26.33232401 56.78340455 -18.578125 61.4609375 C-7.43738725 67.30138486 5.08262246 69.16725326 17.375 65.875 C24.60939235 63.30087389 31.21691003 59.01201131 37 54 C36.35330586 55.34313399 35.68096422 56.67391178 35 58 C34.61714844 58.81855469 34.23429687 59.63710938 33.83984375 60.48046875 C31.4023557 63.8184301 29.28058203 64.37419268 25.375 65.625 C24.12203125 66.03363281 22.8690625 66.44226563 21.578125 66.86328125 C20.39734375 67.23839844 19.2165625 67.61351562 18 68 C16.37473838 68.60346253 14.74969053 69.20750161 13.125 69.8125 C4.24491903 72.64829228 -5.22186007 70.45747466 -14 68 C-14.6909375 67.4740625 -15.381875 66.948125 -16.09375 66.40625 C-18.71014905 64.47611955 -20.54487812 64.69803136 -23.75 64.8125 C-24.73484375 64.83957031 -25.7196875 64.86664063 -26.734375 64.89453125 C-27.85585937 64.94673828 -27.85585937 64.94673828 -29 65 C-29.33 61.7 -29.66 58.4 -30 55 C-32.97 55.495 -32.97 55.495 -36 56 C-36.90911281 53.03377061 -36.97713845 50.97651656 -36.4375 47.9375 C-35.95761045 44.29389415 -36.19438203 41.45493152 -37 37.875 C-38.58047497 30.32502837 -39.15996742 19.80256967 -35 13 C-35.66 13 -36.32 13 -37 13 C-37 12.01 -37 11.02 -37 10 C-36.401875 10.226875 -35.80375 10.45375 -35.1875 10.6875 C-32.97701922 11.23938689 -32.97701922 11.23938689 -31.25 9.9375 C-29.51502573 7.24828988 -29.79126371 5.13104437 -30 2 C-29.01 1.67 -28.02 1.34 -27 1 C-24.8125 2.4375 -24.8125 2.4375 -23 4 C-22.3503125 3.2575 -22.3503125 3.2575 -21.6875 2.5 C-20 1 -20 1 -17 1 C-16.175 0.835 -15.35 0.67 -14.5 0.5 C-9.66009453 -0.19141507 -4.88035336 -0.07815512 0 0 Z " fill="#4CADCC" transform="translate(198,223)"/>
<path d="M0 0 C0.99 0 1.98 0 3 0 C4.55597726 2.33396589 5.92081896 4.42656829 7 7 C6.67 7.66 6.34 8.32 6 9 C6.44485113 12.08617485 6.44485113 12.08617485 8 15 C11.02852436 16.21979643 11.02852436 16.21979643 14 17 C14.16858098 19.0831793 14.33479255 21.16655044 14.5 23.25 C14.5928125 24.41015625 14.685625 25.5703125 14.78125 26.765625 C14.94404644 29.17268658 15 31.58743951 15 34 C16.485 34.495 16.485 34.495 18 35 C17.67 35.99 17.34 36.98 17 38 C17.66 38 18.32 38 19 38 C19 38.66 19 39.32 19 40 C19.66 40.33 20.32 40.66 21 41 C20.34 41 19.68 41 19 41 C19.60183749 43.02045442 20.27306096 45.02111039 21 47 C21.66 47.33 22.32 47.66 23 48 C23.59355614 50.64860427 23.74209269 53.29197322 24 56 C26.03390398 55.50806784 26.03390398 55.50806784 28 54 C29.07133547 50.70959474 29.07133547 50.70959474 29.625 46.9375 C30.02594755 44.61436273 30.47138255 42.29745278 31 40 C31.66 39.67 32.32 39.34 33 39 C32.95359375 38.25234375 32.9071875 37.5046875 32.859375 36.734375 C32.55771231 28.50329289 32.55771231 28.50329289 34.8125 25.9375 C35.534375 25.298125 36.25625 24.65875 37 24 C38.26992496 20.73684501 39.14634653 17.39286473 40 14 C40.19207031 13.236875 40.38414062 12.47375 40.58203125 11.6875 C40.71996094 11.130625 40.85789062 10.57375 41 10 C40.34 10 39.68 10 39 10 C39 8 39 8 41 6 C40.505 5.01 40.505 5.01 40 4 C37.47266765 3.34444881 37.47266765 3.34444881 35 3 C35.33 2.01 35.66 1.02 36 0 C36.66 0 37.32 0 38 0 C38 0.66 38 1.32 38 2 C38.804375 2.12375 39.60875 2.2475 40.4375 2.375 C41.7059375 2.684375 41.7059375 2.684375 43 3 C45.80533274 8.61066548 43.37059307 15.02423404 41.5859375 20.6171875 C41.20775375 21.8403215 41.20775375 21.8403215 40.82192993 23.08816528 C40.28678051 24.81249455 39.74691968 26.53536785 39.20263672 28.25683594 C38.38933348 30.82965715 37.58980279 33.4064116 36.79296875 35.984375 C33.44576561 46.74861432 29.83162027 57.39901202 26 68 C23.6138036 65.6138036 23.25867318 64.01364493 22.3359375 60.78515625 C22.02269531 59.71563721 21.70945312 58.64611816 21.38671875 57.54418945 C21.05285156 56.39523193 20.71898437 55.24627441 20.375 54.0625 C15.62829283 38.22601566 9.67940597 23.46162327 1.6640625 9.00390625 C0.38270146 6.69083902 -0.84368963 4.37686021 -2 2 C-1.34 2 -0.68 2 0 2 C0 1.34 0 0.68 0 0 Z " fill="#3080B8" transform="translate(297,232)"/>
<path d="M0 0 C3.62528568 -0.20140476 5.86501708 0.14223235 9 2 C5.64992314 6.83116347 1.59996979 9.60215108 -3.25 12.75 C-4.45426636 13.5387854 -4.45426636 13.5387854 -5.68286133 14.34350586 C-23.22275368 25.71237075 -42.05220604 35.68324691 -61.75 42.75 C-62.44665771 43.00225342 -63.14331543 43.25450684 -63.86108398 43.5144043 C-68.61397817 45.12867394 -68.61397817 45.12867394 -72 44 C-67.73688282 39.87010523 -64.71241466 39.38728235 -59 39 C-59 38.34 -59 37.68 -59 37 C-59 35.33333333 -59 33.66666667 -59 32 C-57.741875 31.979375 -56.48375 31.95875 -55.1875 31.9375 C-54.47980469 31.92589844 -53.77210938 31.91429687 -53.04296875 31.90234375 C-51 32 -51 32 -48 33 C-44.84979639 32.11680706 -44.84979639 32.11680706 -42 31 C-42 29.68 -42 28.36 -42 27 C-41.67 26.01 -41.34 25.02 -41 24 C-37.33333333 24 -33.66666667 24 -30 24 C-28.66018514 23.6937566 -27.32488113 23.36548445 -26 23 C-25.938125 22.21625 -25.87625 21.4325 -25.8125 20.625 C-25.544375 19.75875 -25.27625 18.8925 -25 18 C-22.4375 16.6875 -22.4375 16.6875 -20 16 C-20 16.66 -20 17.32 -20 18 C-18.576875 17.505 -18.576875 17.505 -17.125 17 C-14 16 -14 16 -12 16 C-10.5393715 13.35261084 -10 12.10551666 -10 9 C-9 8 -9 8 -5.4375 7.9375 C-4.303125 7.958125 -3.16875 7.97875 -2 8 C-1.67 6.35 -1.34 4.7 -1 3 C-1.99 2.67 -2.98 2.34 -4 2 C-2.68 2 -1.36 2 0 2 C0 1.34 0 0.68 0 0 Z M-57 36 C-56 38 -56 38 -56 38 Z " fill="#186AB3" transform="translate(395,448)"/>
<path d="M0 0 C19.63746947 24.54331253 26.37348256 69.60086553 26.0625 100.125 C26.05798828 100.98609375 26.05347656 101.8471875 26.04882812 102.734375 C26.03722494 104.82294785 26.0192984 106.91148407 26 109 C25.67 109 25.34 109 25 109 C24.95101563 108.07316406 24.90203125 107.14632812 24.8515625 106.19140625 C24.77679688 104.99386719 24.70203125 103.79632813 24.625 102.5625 C24.55539062 101.36753906 24.48578125 100.17257813 24.4140625 98.94140625 C24.27742188 97.97074219 24.14078125 97.00007813 24 96 C23.34 95.67 22.68 95.34 22 95 C22 94.34 22 93.68 22 93 C22.99 92.505 22.99 92.505 24 92 C24 91.34 24 90.68 24 90 C23.34 90 22.68 90 22 90 C22.02320313 89.11699219 22.04640625 88.23398438 22.0703125 87.32421875 C22.30683683 73.71239904 22.30683683 73.71239904 18 61 C17.67 60.34 17.34 59.68 17 59 C15.515 58.505 15.515 58.505 14 58 C13.97302863 55.39576408 13.95317511 52.79180756 13.9375 50.1875 C13.92912109 49.44951172 13.92074219 48.71152344 13.91210938 47.95117188 C13.89740172 44.70077932 13.96468298 42.10595105 15 39 C14.34 39 13.68 39 13 39 C12.71125 38.05125 12.4225 37.1025 12.125 36.125 C11.23174891 32.94788422 11.23174891 32.94788422 9 31 C6.57434834 26.14869669 6.54548501 20.32718338 6 15 C5.38125 15.185625 4.7625 15.37125 4.125 15.5625 C2 16 2 16 0 15 C-0.33 15.66 -0.66 16.32 -1 17 C-1.66 16.01 -2.32 15.02 -3 14 C-1.71034824 12.62437146 -0.37310707 11.29233607 1 10 C1.66 10 2.32 10 3 10 C2.2575 8.63875 2.2575 8.63875 1.5 7.25 C0 4 0 4 0 0 Z " fill="#0C4B9F" transform="translate(474,143)"/>
<path d="M0 0 C0.66 0.33 1.32 0.66 2 1 C3.43753872 6.12596042 3.40583251 11.53424202 3.71875 16.8203125 C3.8781985 20.02028093 3.8781985 20.02028093 5 23 C5.2885443 25.33120941 5.55651034 27.66499156 5.8125 30 C6.63165103 36.78175142 8.4417386 42.69428538 11 49 C12.39151386 53.0343115 13.64651805 57.10102079 14.875 61.1875 C16.49143314 66.48648383 18.29490981 71.67855154 20.265625 76.85546875 C21 79 21 79 21 81 C21.66 81 22.32 81 23 81 C23.24492187 81.81984375 23.48984375 82.6396875 23.7421875 83.484375 C25.21639134 87.60482052 27.11439031 91.37087318 29.125 95.25 C33 102.73183391 33 102.73183391 33 105 C33.66 105 34.32 105 35 105 C35.43570313 105.83402344 35.87140625 106.66804688 36.3203125 107.52734375 C41.40245971 117.77079374 41.40245971 117.77079374 48 127 C48.99 127 49.98 127 51 127 C51 128.98 51 130.96 51 133 C46.74658532 129.04819109 43.56572428 124.77578102 40.375 119.9375 C39.85647461 119.15238037 39.33794922 118.36726074 38.80371094 117.55834961 C16.63541848 83.48149811 0.7178501 41.9590353 -1 1 C-0.67 0.67 -0.34 0.34 0 0 Z " fill="#6CD3D9" transform="translate(1,273)"/>
<path d="M0 0 C0 0.66 0 1.32 0 2 C-1.32 2.33 -2.64 2.66 -4 3 C-4 3.66 -4 4.32 -4 5 C-2.68 5 -1.36 5 0 5 C0 5.66 0 6.32 0 7 C-0.99 7.33 -1.98 7.66 -3 8 C-5.5625 6.625 -5.5625 6.625 -8 5 C-8.66 4.67 -9.32 4.34 -10 4 C-10 5.65 -10 7.3 -10 9 C-11.32 9 -12.64 9 -14 9 C-14.66 9.33 -15.32 9.66 -16 10 C-16 9.34 -16 8.68 -16 8 C-17.32 8 -18.64 8 -20 8 C-20.33 8.99 -20.66 9.98 -21 11 C-23.68177106 14.32028798 -26.16040095 14.74450013 -30.25 15.3125 C-34.72175199 16.430438 -39.30700268 18.30286332 -42.59765625 21.6015625 C-44.54270161 23.5411899 -46.32268081 23.5018941 -49 24 C-53.21010044 25.84191894 -56.46242581 28.09737503 -60 31 C-61.65261839 32.02304948 -63.31791365 33.02616054 -65 34 C-65.99 34.66 -66.98 35.32 -68 36 C-70.1875 35.625 -70.1875 35.625 -72 35 C-22.29255319 0 -22.29255319 0 0 0 Z " fill="#4DAEC9" transform="translate(176,15)"/>
<path d="M0 0 C0 0.66 0 1.32 0 2 C-1.051875 2.268125 -2.10375 2.53625 -3.1875 2.8125 C-10.68993215 5.56876987 -17.17812507 12.13459574 -22.71484375 17.734375 C-24 19 -24 19 -26.75 20.75 C-30.99909266 23.69167954 -35.64598315 27.29196629 -38 32 C-38.66 32 -39.32 32 -40 32 C-40.26167969 32.56847656 -40.52335937 33.13695312 -40.79296875 33.72265625 C-44.09406086 39.95093037 -49.05693317 45.05693317 -54 50 C-55.87615119 52.62661167 -57.61289216 55.08753151 -58.875 58.0625 C-60.63849415 61.09962881 -63.24630333 62.84493304 -66 65 C-65.60319355 59.54391132 -63.39662112 56.33254293 -60 52.25 C-59.5059668 51.63946777 -59.01193359 51.02893555 -58.50292969 50.39990234 C-54.82055555 45.88751397 -50.99040964 41.51661544 -47.046875 37.23046875 C-45.15328813 35.16703726 -43.32173836 33.06425419 -41.5 30.9375 C-35.14755039 23.6817204 -28.3148928 17.22477101 -20.7734375 11.21484375 C-18.92173103 9.73608661 -17.09322808 8.22780662 -15.2890625 6.69140625 C-14.43054688 5.96824219 -13.57203125 5.24507812 -12.6875 4.5 C-11.92824219 3.8503125 -11.16898438 3.200625 -10.38671875 2.53125 C-7.06339221 0.39909942 -3.9039429 0 0 0 Z " fill="#5FCAD6" transform="translate(110,50)"/>
<path d="M0 0 C5.97646673 0.60736451 11.24475638 2.25344819 16.875 4.3125 C17.81448486 4.65498779 18.75396973 4.99747559 19.72192383 5.3503418 C27.55812904 8.29397903 35.13741461 11.7030919 42.6875 15.3125 C44.30857666 16.08557495 44.30857666 16.08557495 45.96240234 16.87426758 C54.26784398 20.92990317 54.26784398 20.92990317 57 24 C53.23197087 24.814709 49.85318348 25 46 25 C45.505 23.515 45.505 23.515 45 22 C45.495 21.505 45.495 21.505 46 21 C45.28972656 20.73445313 44.57945312 20.46890625 43.84765625 20.1953125 C42.92855469 19.84210937 42.00945312 19.48890625 41.0625 19.125 C40.14597656 18.77695312 39.22945313 18.42890625 38.28515625 18.0703125 C36 17 36 17 35 15 C35 15.99 35 16.98 35 18 C34.01 18.33 33.02 18.66 32 19 C32 18.34 32 17.68 32 17 C30.35 17 28.7 17 27 17 C27 15.68 27 14.36 27 13 C26.34 13 25.68 13 25 13 C24.67 12.34 24.34 11.68 24 11 C22.35 11 20.7 11 19 11 C19 10.34 19 9.68 19 9 C16.36 9.33 13.72 9.66 11 10 C11 9.34 11 8.68 11 8 C11.66 8 12.32 8 13 8 C9.1713614 3.78849754 5.58295988 2.76131271 0 2 C0 1.34 0 0.68 0 0 Z " fill="#2977AF" transform="translate(317,13)"/>
<path d="M0 0 C3.3420998 3.79318075 4.80195757 8.24046363 6.625 12.875 C14.18653427 31.37775173 25.65313042 47.94378189 44.06640625 56.90625 C48.87954276 58.70076161 53.81723131 59.49315393 58.875 60.32421875 C62 61 62 61 64 63 C63.01 63.66 62.02 64.32 61 65 C60.1646875 64.505 60.1646875 64.505 59.3125 64 C56.69715478 62.8690399 54.8193354 62.84337026 52 63 C52 63.66 52 64.32 52 65 C50 64 50 64 49 61 C48.01 61.66 47.02 62.32 46 63 C45.67 62.01 45.34 61.02 45 60 C42.98491642 59.26676204 42.98491642 59.26676204 41 59 C41 58.34 41 57.68 41 57 C38.36 56.67 35.72 56.34 33 56 C32.67 55.01 32.34 54.02 32 53 C31.01 52.34 30.02 51.68 29 51 C29 50.34 29 49.68 29 49 C28.34 49 27.68 49 27 49 C27 48.34 27 47.68 27 47 C26.195625 47.495 26.195625 47.495 25.375 48 C22.4608939 49.22699204 20.13132292 49.14233286 17 49 C18 46 18 46 21 44 C20.05003673 41.88085117 19.24724113 40.23783522 17.5625 38.6171875 C15.84056101 36.83498064 14.89639206 35.15927109 13.8125 32.9375 C13.46832031 32.24527344 13.12414062 31.55304688 12.76953125 30.83984375 C12 29 12 29 12 27 C11.34 27 10.68 27 10 27 C8.5393715 24.35261084 8 23.10551666 8 20 C7.34 20 6.68 20 6 20 C6 18.35 6 16.7 6 15 C5.34 15 4.68 15 4 15 C4 13.68 4 12.36 4 11 C3.34 11 2.68 11 2 11 C0.80712589 7.12315913 0 4.08378077 0 0 Z " fill="#337DB5" transform="translate(311,303)"/>
<path d="M0 0 C0.66 0.33 1.32 0.66 2 1 C0.31338826 3.00075461 -1.3742727 5.00060924 -3.0625 7 C-3.76149414 7.82951172 -3.76149414 7.82951172 -4.47460938 8.67578125 C-5.97780514 10.4550742 -7.48738097 12.22871139 -9 14 C-9.53641113 14.6297876 -10.07282227 15.2595752 -10.62548828 15.90844727 C-15.12691746 21.12992397 -19.87403319 26.06569091 -24.75 30.9375 C-25.53552246 31.72366699 -26.32104492 32.50983398 -27.13037109 33.31982422 C-32.80571913 38.94388548 -38.61126094 44.18733754 -45 49 C-45.66 48.67 -46.32 48.34 -47 48 C-45.6875 46 -45.6875 46 -44 44 C-43.01 44 -42.02 44 -41 44 C-41 41.36 -41 38.72 -41 36 C-40.071875 36.5259375 -40.071875 36.5259375 -39.125 37.0625 C-38.42375 37.371875 -37.7225 37.68125 -37 38 C-34.66110011 37.11762697 -34.66110011 37.11762697 -33.9375 34.0625 C-33.4734375 32.5465625 -33.4734375 32.5465625 -33 31 C-32.67 30.34 -32.34 29.68 -32 29 C-30.02 29 -28.04 29 -26 29 C-25.01 25.535 -25.01 25.535 -24 22 C-22.35 21.67 -20.7 21.34 -19 21 C-18.9175 20.4225 -18.835 19.845 -18.75 19.25 C-17.79468987 16.3840696 -16.21530827 15.0009236 -14 13 C-14 13.66 -14 14.32 -14 15 C-13.34 15 -12.68 15 -12 15 C-12 14.34 -12 13.68 -12 13 C-11.34 13 -10.68 13 -10 13 C-8.74335022 10.09399739 -8 8.20395416 -8 5 C-7.38125 4.896875 -6.7625 4.79375 -6.125 4.6875 C-3.63473516 4.12474627 -3.63473516 4.12474627 -2 1 C-1.34 0.67 -0.68 0.34 0 0 Z " fill="#145EAB" transform="translate(449,403)"/>
<path d="M0 0 C0 0.66 0 1.32 0 2 C-0.99 2.33 -1.98 2.66 -3 3 C-4.4587688 4.29078411 -4.4587688 4.29078411 -6 6 C-7.299375 7.11375 -7.299375 7.11375 -8.625 8.25 C-12.41710178 12.64085469 -12.16961311 17.40276753 -12 23 C-12.99 23 -13.98 23 -15 23 C-15.103125 24.051875 -15.20625 25.10375 -15.3125 26.1875 C-16 30 -16 30 -17.46484375 32.328125 C-19.25906855 35.45089794 -19.73923723 38.00775585 -20.25 41.5625 C-20.42015625 42.67753906 -20.5903125 43.79257812 -20.765625 44.94140625 C-20.97481771 47.67137115 -20.87586004 49.44123745 -20 52 C-20.99 52.495 -20.99 52.495 -22 53 C-22.33 52.34 -22.66 51.68 -23 51 C-23.26554687 51.71027344 -23.53109375 52.42054688 -23.8046875 53.15234375 C-24.15789062 54.07144531 -24.51109375 54.99054688 -24.875 55.9375 C-25.22304688 56.85402344 -25.57109375 57.77054687 -25.9296875 58.71484375 C-27 61 -27 61 -29 62 C-28.3314838 55.77042341 -26.66024605 50.00865765 -24.83203125 44.02734375 C-24.51473557 42.98606827 -24.19743988 41.94479279 -23.87052917 40.8719635 C-23.19863092 38.67824978 -22.52354256 36.48551089 -21.84545898 34.29370117 C-20.81640223 30.9501788 -19.81344809 27.59949246 -18.81054688 24.24804688 C-18.15264622 22.11148443 -17.49319239 19.97539949 -16.83203125 17.83984375 C-16.53802933 16.84282944 -16.2440274 15.84581512 -15.94111633 14.81858826 C-13.69561794 7.71829405 -11.07908882 3.13225097 -4.25 -0.4375 C-2 -1 -2 -1 0 0 Z " fill="#297BB8" transform="translate(356,233)"/>
<path d="M0 0 C3.98096543 1.28950293 7.17210291 0.97258028 11.07421875 -0.328125 C10.74421875 5.941875 10.41421875 12.211875 10.07421875 18.671875 C8.08398837 16.68164462 7.51277262 15.51404285 6.44921875 12.984375 C3.86541471 7.6210242 -0.58911505 3.3402081 -5.92578125 0.671875 C-12.27109396 0.06866429 -17.40153105 0.4024208 -22.92578125 3.671875 C-26.31327601 7.62395222 -26.50048889 11.65342511 -26.92578125 16.671875 C-27.25578125 16.671875 -27.58578125 16.671875 -27.92578125 16.671875 C-28.25578125 15.021875 -28.58578125 13.371875 -28.92578125 11.671875 C-29.91578125 12.991875 -30.90578125 14.311875 -31.92578125 15.671875 C-31.70500134 10.26276712 -30.5245295 7.20834689 -26.7890625 3.25 C-18.49940055 -3.77101348 -9.70138749 -3.58934406 0 0 Z " fill="#CAF1FA" transform="translate(217.92578125,171.328125)"/>
<path d="M0 0 C1.27875 -0.061875 2.5575 -0.12375 3.875 -0.1875 C4.95394531 -0.23970703 4.95394531 -0.23970703 6.0546875 -0.29296875 C6.69664062 -0.19628906 7.33859375 -0.09960938 8 0 C8.66 0.99 9.32 1.98 10 3 C6.61588579 6.91478508 2.92835657 8.76912668 -1.6875 10.875 C-2.42629395 11.216521 -3.16508789 11.55804199 -3.92626953 11.90991211 C-9.32653921 14.35571535 -14.79950566 16.54964693 -20.375 18.5625 C-21.09389404 18.82595215 -21.81278809 19.0894043 -22.5534668 19.36083984 C-27.63027844 21.12324052 -27.63027844 21.12324052 -31 20 C-26.73688282 15.87010523 -23.71241466 15.38728235 -18 15 C-18 14.34 -18 13.68 -18 13 C-18 11.33333333 -18 9.66666667 -18 8 C-16.741875 7.979375 -15.48375 7.95875 -14.1875 7.9375 C-13.47980469 7.92589844 -12.77210938 7.91429687 -12.04296875 7.90234375 C-10 8 -10 8 -7 9 C-3.84979639 8.11680706 -3.84979639 8.11680706 -1 7 C-1 5.68 -1 4.36 -1 3 C-0.67 2.01 -0.34 1.02 0 0 Z M-16 12 C-15 14 -15 14 -15 14 Z " fill="#2873AE" transform="translate(354,472)"/>
<path d="M0 0 C1.05267563 0.00141495 2.10535126 0.0028299 3.18992615 0.00428772 C6.52117874 0.00984329 9.85236179 0.02238737 13.18359375 0.03515625 C15.45507715 0.040177 17.72656161 0.0447389 19.99804688 0.04882812 C25.53908585 0.05979813 31.08008483 0.07649142 36.62109375 0.09765625 C36.62109375 0.42765625 36.62109375 0.75765625 36.62109375 1.09765625 C35.39704834 1.11747559 34.17300293 1.13729492 32.91186523 1.15771484 C28.29888955 1.23473452 23.68619056 1.32328885 19.07348633 1.41503906 C17.09046964 1.45293622 15.10739333 1.4878514 13.12426758 1.51953125 C-6.27445251 0.41851226 -6.27445251 0.41851226 -23.37890625 6.09765625 C-25.65625 6.2578125 -25.65625 6.2578125 -28.31640625 6.16015625 C-31.46704222 6.05343368 -33.34891976 6.08766075 -36.37890625 7.09765625 C-36.70890625 7.75765625 -37.03890625 8.41765625 -37.37890625 9.09765625 C-38.45140625 8.87078125 -39.52390625 8.64390625 -40.62890625 8.41015625 C-44.30620938 7.71233884 -44.30620938 7.71233884 -46.62890625 9.59765625 C-47.20640625 10.09265625 -47.78390625 10.58765625 -48.37890625 11.09765625 C-49.36890625 10.76765625 -50.35890625 10.43765625 -51.37890625 10.09765625 C-53.91908891 10.62960228 -53.91908891 10.62960228 -56.56640625 11.53515625 C-57.46746094 11.82261719 -58.36851562 12.11007813 -59.296875 12.40625 C-59.98394531 12.63441406 -60.67101562 12.86257812 -61.37890625 13.09765625 C-61.37890625 12.10765625 -61.37890625 11.11765625 -61.37890625 10.09765625 C-51.24322151 7.24187441 -41.12098468 4.72035029 -30.75390625 2.84765625 C-29.40594971 2.60354004 -29.40594971 2.60354004 -28.03076172 2.35449219 C-18.63003939 0.70940944 -9.54787228 -0.04910792 0 0 Z " fill="#449BBD" transform="translate(237.37890625,3.90234375)"/>
<path d="M0 0 C5.61 0 11.22 0 17 0 C15.62100451 2.75799098 13.62327638 3.43852596 11 5 C8.545847 7.11132855 7.49408279 8.80837708 6.5612793 11.89453125 C6.20026375 13.06350952 6.20026375 13.06350952 5.83195496 14.25610352 C5.58190201 15.09971436 5.33184906 15.9433252 5.07421875 16.8125 C4.6691082 18.13689087 4.6691082 18.13689087 4.2558136 19.48803711 C3.39077644 22.32273161 2.53881496 25.16115772 1.6875 28 C1.12654337 29.84922925 0.56470285 31.69819063 0.00195312 33.546875 C-0.83575744 36.29952203 -1.67271728 39.05237216 -2.50588989 41.80639648 C-5.25808227 50.89610203 -8.11791084 59.95077556 -11 69 C-11.99 68.67 -12.98 68.34 -14 68 C-13.66790527 67.01418945 -13.33581055 66.02837891 -12.99365234 65.01269531 C-5.45128119 42.71817263 -5.45128119 42.71817263 1.75 20.3125 C2.10892334 19.20600098 2.10892334 19.20600098 2.47509766 18.07714844 C4.03807383 12.92979503 4.18997391 8.37731712 4 3 C2.68 2.34 1.36 1.68 0 1 C0 0.67 0 0.34 0 0 Z " fill="#B1E2F7" transform="translate(336,232)"/>
<path d="M0 0 C0.66 0.66 1.32 1.32 2 2 C0.86111328 1.98259766 0.86111328 1.98259766 -0.30078125 1.96484375 C-1.29464844 1.95582031 -2.28851563 1.94679687 -3.3125 1.9375 C-4.29863281 1.92589844 -5.28476563 1.91429687 -6.30078125 1.90234375 C-9.95234315 2.03445525 -11.53315407 2.50486038 -14.0625 5.1875 C-16.11820754 8.17159159 -17.26099446 10.45277343 -18 14 C-17.45981189 16.81172873 -17.45981189 16.81172873 -16 19 C-15.01 19.33 -14.02 19.66 -13 20 C-13 20.99 -13 21.98 -13 23 C-12.01 23 -11.02 23 -10 23 C-10 23.66 -10 24.32 -10 25 C-10.66 25.66 -11.32 26.32 -12 27 C-11.15115234 27.58007812 -11.15115234 27.58007812 -10.28515625 28.171875 C-9.55167969 28.69265625 -8.81820312 29.2134375 -8.0625 29.75 C-7.33160156 30.26046875 -6.60070312 30.7709375 -5.84765625 31.296875 C-4 33 -4 33 -3.49609375 35.078125 C-3.33238281 35.71234375 -3.16867188 36.3465625 -3 37 C-1.15245304 38.11158588 -1.15245304 38.11158588 1 39 C2.28016835 40.00435972 3.53128122 41.04690261 4.75 42.125 C5.36359375 42.66382813 5.9771875 43.20265625 6.609375 43.7578125 C7.06828125 44.16773438 7.5271875 44.57765625 8 45 C3.70946668 45 1.68648323 42.45982637 -1.375 39.75 C-2.5073092 38.76504611 -3.64011456 37.78066228 -4.7734375 36.796875 C-5.31991943 36.31798828 -5.86640137 35.83910156 -6.42944336 35.34570312 C-7.82282881 34.15180594 -9.26588831 33.0164321 -10.71484375 31.890625 C-12.92215315 30.06440662 -14.50631976 28.30767905 -16.1875 26 C-16.67605469 25.34 -17.16460937 24.68 -17.66796875 24 C-21.01840871 18.9694274 -21.82379525 15.00640584 -21 9 C-19.14530889 4.99386719 -17.65493003 3.39295802 -13.875 1.125 C-9.44694391 -0.49830039 -4.64652426 -0.65408111 0 0 Z " fill="#51A3C4" transform="translate(212,171)"/>
<path d="M0 0 C0.66 0.33 1.32 0.66 2 1 C0.625 3.5 0.625 3.5 -1 6 C-1.66 6 -2.32 6 -3 6 C-3.0825 6.556875 -3.165 7.11375 -3.25 7.6875 C-4.22461509 10.69256318 -6.00824469 12.57254822 -8 15 C-8.33 15.99 -8.66 16.98 -9 18 C-8.34 18.33 -7.68 18.66 -7 19 C-7.77443609 25.58270677 -7.77443609 25.58270677 -9.25 28.3125 C-10.50231424 32.79995936 -9.004075 36.88793501 -7 41 C-4.61880754 42.40257876 -4.61880754 42.40257876 -2 43 C0.3125 45.625 0.3125 45.625 2 48 C1.34 49.32 0.68 50.64 0 52 C-4.50589264 50.49803579 -6.72696611 46.93992542 -9 43 C-12.95474957 35.09050086 -13.46443806 25.59490437 -11.23828125 17.08984375 C-8.70778955 10.45855523 -5.2240095 4.85086597 0 0 Z " fill="#4AABCE" transform="translate(182,230)"/>
<path d="M0 0 C0.99 1.0209375 0.99 1.0209375 2 2.0625 C2.99659249 3.04513461 3.99703114 4.02387459 5 5 C5.58136719 5.5775 6.16273438 6.155 6.76171875 6.75 C11.69451158 11.39262854 16.55526571 13.96135956 23 16 C23.60070312 16.19335938 24.20140625 16.38671875 24.8203125 16.5859375 C38.93469548 19.26716437 51.28452995 15.94163722 63 8 C64.69930848 6.70852555 66.38707631 5.3978672 68 4 C67.35330586 5.34313399 66.68096422 6.67391178 66 8 C65.61714844 8.81855469 65.23429687 9.63710938 64.83984375 10.48046875 C62.4023557 13.8184301 60.28058203 14.37419268 56.375 15.625 C55.12203125 16.03363281 53.8690625 16.44226563 52.578125 16.86328125 C51.39734375 17.23839844 50.2165625 17.61351562 49 18 C47.37473838 18.60346253 45.74969053 19.20750161 44.125 19.8125 C35.24491903 22.64829228 25.77813993 20.45747466 17 18 C14.671875 16.41796875 14.671875 16.41796875 13 15 C12.34 14.87625 11.68 14.7525 11 14.625 C7.92883146 13.66525983 6.76797696 11.5888234 5 9 C5 8.34 5 7.68 5 7 C4.34 7 3.68 7 3 7 C0 2.61538462 0 2.61538462 0 0 Z " fill="#49A1C5" transform="translate(167,273)"/>
<path d="M0 0 C1.8371856 3.67437121 0.45765322 8.03154461 -0.0625 12 C-0.19462891 13.01078613 -0.32675781 14.02157227 -0.46289062 15.06298828 C-2.59281411 30.27705965 -5.91192082 45.49291709 -11 60 C-11.33 60 -11.66 60 -12 60 C-12.26963045 55.77578954 -12.03743974 52.76797877 -10.5 48.8125 C-8.48464914 43.29880425 -8.52892542 37.80690005 -9 32 C-9.33 31.34 -9.66 30.68 -10 30 C-9.34 30 -8.68 30 -8 30 C-3.68947261 21.54761802 -2.73323376 14.61457231 -3.1875 5.16015625 C-3.125625 4.11730469 -3.06375 3.07445312 -3 2 C-2.01 1.34 -1.02 0.68 0 0 Z " fill="#0E4896" transform="translate(499,273)"/>
<path d="M0 0 C15.96969805 -0.64524033 29.04867508 1.48010692 43 10 C45.33984375 12.1875 45.33984375 12.1875 47 14 C45.68 14 44.36 14 43 14 C42.67 15.32 42.34 16.64 42 18 C41.40574219 17.40832031 40.81148438 16.81664062 40.19921875 16.20703125 C28.17012318 4.73916875 16.12105183 1.93384142 0 1 C0 0.67 0 0.34 0 0 Z " fill="#E7FAFD" transform="translate(235,207)"/>
<path d="M0 0 C1.32 0 2.64 0 4 0 C4 0.66 4 1.32 4 2 C6.64 2.33 9.28 2.66 12 3 C12 3.66 12 4.32 12 5 C15.36683915 7.43160605 16.73350364 8 21 8 C21 8.66 21 9.32 21 10 C23.97 10.33 26.94 10.66 30 11 C30.33 12.32 30.66 13.64 31 15 C34.85456096 17.45290243 37.50598187 18.12483384 42 18 C42.66 18.66 43.32 19.32 44 20 C45.32 20 46.64 20 48 20 C47.67 21.32 47.34 22.64 47 24 C42.35423078 23.3194674 38.25880329 21.58066494 34 19.6875 C33.22906006 19.34501221 32.45812012 19.00252441 31.66381836 18.6496582 C25.10935858 15.65633946 18.82034717 12.25497161 12.5625 8.6875 C11.65693359 8.1721167 10.75136719 7.6567334 9.81835938 7.12573242 C2.84249896 3.0752971 2.84249896 3.0752971 0 0 Z " fill="#52B3CC" transform="translate(113,463)"/>
<path d="M0 0 C2.62027436 2.62027436 3.48198873 5.57923297 4.6875 9 C5.04424805 9.96292969 5.04424805 9.96292969 5.40820312 10.9453125 C6.00166907 12.60910558 6.50730517 14.30363299 7 16 C6.67 16.66 6.34 17.32 6 18 C5.34 17.34 4.68 16.68 4 16 C4 14.68 4 13.36 4 12 C3.01 11.67 2.02 11.34 1 11 C1 10.01 1 9.02 1 8 C0.01 8.33 -0.98 8.66 -2 9 C-2.09796875 9.64324219 -2.1959375 10.28648437 -2.296875 10.94921875 C-3.40120571 17.62280347 -5.10032417 23.91741834 -7.1953125 30.34765625 C-8.09677343 32.85702265 -8.09677343 32.85702265 -8 35 C-8.66 35 -9.32 35 -10 35 C-9.79375 35.94875 -9.5875 36.8975 -9.375 37.875 C-9.25125 38.90625 -9.1275 39.9375 -9 41 C-9.66 41.66 -10.32 42.32 -11 43 C-11.144375 43.763125 -11.28875 44.52625 -11.4375 45.3125 C-12.07571225 48.36173632 -13.29985729 50.41282632 -15 53 C-16.14721057 49.61785192 -15.84410623 47.63269163 -14.75244141 44.26318359 C-14.30670273 42.86185684 -14.30670273 42.86185684 -13.85195923 41.43222046 C-13.35676285 39.93049789 -13.35676285 39.93049789 -12.8515625 38.3984375 C-12.51957855 37.36562653 -12.1875946 36.33281555 -11.84555054 35.26870728 C-10.78165761 31.96760415 -9.70332041 28.67141494 -8.625 25.375 C-7.90534058 23.14612676 -7.18657953 20.91696324 -6.46875 18.6875 C-5.15319697 14.61595711 -3.83636231 10.54487168 -2.50634766 6.47802734 C-2.23907867 5.65958344 -1.97180969 4.84113953 -1.69644165 3.99789429 C-1 2 -1 2 0 0 Z " fill="#3B8AB9" transform="translate(295,256)"/>
<path d="M0 0 C9.9 0.33 19.8 0.66 30 1 C30 1.33 30 1.66 30 2 C19.11 2.495 19.11 2.495 8 3 C9.98 5.31 11.96 7.62 14 10 C15.375 13.4375 15.375 13.4375 16 16 C14 16 14 16 12.375 14.5 C11.92125 14.005 11.4675 13.51 11 13 C9.80658248 13.97332261 9.80658248 13.97332261 9.88647461 15.76586914 C9.89171143 16.51473389 9.89694824 17.26359863 9.90234375 18.03515625 C9.90556641 18.84404297 9.90878906 19.65292969 9.91210938 20.48632812 C9.92048828 21.33646484 9.92886719 22.18660156 9.9375 23.0625 C9.94201172 23.91650391 9.94652344 24.77050781 9.95117188 25.65039062 C9.96299627 27.76695663 9.98093231 29.88348685 10 32 C9.67 32 9.34 32 9 32 C8.98582031 30.88882812 8.97164062 29.77765625 8.95703125 28.6328125 C8.7163466 19.64051028 8.02507676 12.7264186 3 5 C2.01 3.35 1.02 1.7 0 0 Z " fill="#3D94BF" transform="translate(233,230)"/>
<path d="M0 0 C0.495 1.485 0.495 1.485 1 3 C0.4946875 3.48210937 -0.010625 3.96421875 -0.53125 4.4609375 C-1.1809375 5.09257812 -1.830625 5.72421875 -2.5 6.375 C-3.1496875 7.00148438 -3.799375 7.62796875 -4.46875 8.2734375 C-6.22117431 9.86475907 -6.22117431 9.86475907 -6 12 C-7.24891614 12.48198463 -8.49918808 12.96045677 -9.75 13.4375 C-10.44609375 13.70433594 -11.1421875 13.97117187 -11.859375 14.24609375 C-22.1295851 17.8631568 -33.55844433 16.79896004 -43.64453125 13.16796875 C-45.94366002 12.02793641 -47.33562541 10.92978981 -49 9 C-48.34 9 -47.68 9 -47 9 C-46.67 8.34 -46.34 7.68 -46 7 C-44.7315625 7.928125 -44.7315625 7.928125 -43.4375 8.875 C-35.87618489 13.79945926 -27.80325485 13.66151626 -19 13 C-10.77348388 11.21953758 -5.01080676 6.48457345 0 0 Z " fill="#D3F6FC" transform="translate(228,275)"/>
<path d="M0 0 C0 0.66 0 1.32 0 2 C-1.051875 2.268125 -2.10375 2.53625 -3.1875 2.8125 C-10.68817893 5.56812577 -17.17550518 12.13184657 -22.7109375 17.73046875 C-24 19 -24 19 -26.8125 20.8125 C-30.36584121 23.2510675 -33.03055986 25.88915795 -36 29 C-36.99 28.67 -37.98 28.34 -39 28 C-33.19380482 21.96709872 -27.29568803 16.39222302 -20.73828125 11.1796875 C-18.89857999 9.7152748 -17.08336871 8.21960684 -15.29296875 6.6953125 C-14.43316406 5.97085938 -13.57335937 5.24640625 -12.6875 4.5 C-11.92824219 3.8503125 -11.16898438 3.200625 -10.38671875 2.53125 C-7.06339221 0.39909942 -3.9039429 0 0 0 Z " fill="#5CC0D4" transform="translate(110,50)"/>
<path d="M0 0 C6.57577332 3.48026301 11.7011418 7.88940355 16 14 C17 17.5625 17 17.5625 17 20 C16.34 20.33 15.68 20.66 15 21 C13.4375 18.6875 13.4375 18.6875 12 16 C12.33 15.01 12.66 14.02 13 13 C12.34 13 11.68 13 11 13 C10.67 13.66 10.34 14.32 10 15 C8.02 15 6.04 15 4 15 C4.226875 14.4225 4.45375 13.845 4.6875 13.25 C5.2562178 10.90979378 5.2562178 10.90979378 3.6875 8.875 C2.49470503 7.54967226 1.260804 6.260804 0 5 C-0.125 2.375 -0.125 2.375 0 0 Z " fill="#105AAA" transform="translate(428,81)"/>
<path d="M0 0 C0 0.99 0 1.98 0 3 C-0.81404297 3.38091797 -0.81404297 3.38091797 -1.64453125 3.76953125 C-2.35996094 4.11371094 -3.07539063 4.45789062 -3.8125 4.8125 C-4.52019531 5.14894531 -5.22789062 5.48539063 -5.95703125 5.83203125 C-8.01590678 7.00909394 -9.34258361 8.32853771 -11 10 C-12.66128463 10.35919668 -14.32900023 10.68911632 -16 11 C-20.21010044 12.84191894 -23.46242581 15.09737503 -27 18 C-28.65261839 19.02304948 -30.31791365 20.02616054 -32 21 C-32.99 21.66 -33.98 22.32 -35 23 C-37.1875 22.625 -37.1875 22.625 -39 22 C-29.75840377 15.57394384 -20.47881285 9.48097649 -10.5 4.25 C-9.68168701 3.82025879 -8.86337402 3.39051758 -8.02026367 2.94775391 C-2.2812145 0 -2.2812145 0 0 0 Z " fill="#56B8CC" transform="translate(143,28)"/>
<path d="M0 0 C8.03293347 -0.4936373 15.5744245 0.82337597 23.40698242 2.45361328 C25.45582929 2.87880382 27.50769257 3.28605472 29.56054688 3.69140625 C39.58392305 5.72261537 39.58392305 5.72261537 43 8 C41.824375 8.185625 41.824375 8.185625 40.625 8.375 C37.85942178 8.79117993 37.85942178 8.79117993 36 11 C31.125 9.25 31.125 9.25 30 7 C27.69 7 25.38 7 23 7 C23 6.34 23 5.68 23 5 C20.03 4.67 17.06 4.34 14 4 C14 3.34 14 2.68 14 2 C9.71 2 5.42 2 1 2 C0.67 1.34 0.34 0.68 0 0 Z " fill="#2880B9" transform="translate(274,5)"/>
<path d="M0 0 C0.763125 0.185625 1.52625 0.37125 2.3125 0.5625 C5.08967375 1.22819173 5.08967375 1.22819173 8 0 C9.89470816 -0.0685495 11.7916834 -0.08480372 13.6875 -0.0625 C14.68136719 -0.05347656 15.67523438 -0.04445312 16.69921875 -0.03515625 C17.83810547 -0.01775391 17.83810547 -0.01775391 19 0 C19 0.33 19 0.66 19 1 C17.83984375 1.12955078 17.83984375 1.12955078 16.65625 1.26171875 C7.98435614 2.43156582 2.1219093 4.17566111 -3.5 11.0625 C-5.94989462 16.07165954 -5.73346112 21.58533118 -5 27 C-3.9877665 29.91844892 -2.62680939 32.38760536 -1 35 C-0.32213714 36.32767623 0.34747921 37.65968703 1 39 C-2.96906318 37.67697894 -3.87911201 35.85740906 -5.96142578 32.35302734 C-7.72328522 28.36130162 -7.61046733 24.60955113 -7.4375 20.3125 C-7.43169922 19.48427734 -7.42589844 18.65605469 -7.41992188 17.80273438 C-7.33397796 13.50897652 -7.13108762 9.83898054 -5 6 C-3.67479497 5.31731862 -2.34187818 4.6492959 -1 4 C-0.19471111 1.94999129 -0.19471111 1.94999129 0 0 Z " fill="#50A7C6" transform="translate(192,168)"/>
<path d="M0 0 C0.12375 0.639375 0.2475 1.27875 0.375 1.9375 C0.684375 2.9584375 0.684375 2.9584375 1 4 C1.66 4.33 2.32 4.66 3 5 C3.69658363 6.65438613 4.36096883 8.32254318 5 10 C5.99 11.485 5.99 11.485 7 13 C6.625 15.1875 6.625 15.1875 6 17 C3.36 17 0.72 17 -2 17 C-2 14.36 -2 11.72 -2 9 C-2.66 9 -3.32 9 -4 9 C-3.6875 5.625 -3.6875 5.625 -3 2 C-2.01 1.34 -1.02 0.68 0 0 Z " fill="#2487C5" transform="translate(296,263)"/>
<path d="M0 0 C0.33 0 0.66 0 1 0 C0.69192173 9.70446549 -2.59428196 18.02223562 -6 27 C-8.6072902 24.3927098 -9.48026787 21.4640743 -10.6875 18.0625 C-10.92533203 17.42892578 -11.16316406 16.79535156 -11.40820312 16.14257812 C-13.12148952 11.36446856 -13.12148952 11.36446856 -12 8 C-11.01 9.32 -10.02 10.64 -9 12 C-8.01 11.34 -7.02 10.68 -6 10 C-6.29296875 12.05078125 -6.5859375 14.1015625 -6.87890625 16.15234375 C-6.91886719 16.76207031 -6.95882813 17.37179687 -7 18 C-6.67 18.33 -6.34 18.66 -6 19 C-5.566875 17.081875 -5.566875 17.081875 -5.125 15.125 C-4.45897517 12.17546145 -4.19797403 11.19797403 -2 9 C-2 7.845 -2 6.69 -2 5.5 C-2 2 -2 2 0 0 Z " fill="#358DC0" transform="translate(286,272)"/>
<path d="M0 0 C0.66 0.33 1.32 0.66 2 1 C2.40729228 3.32156597 2.74438677 5.6568787 3 8 C3.78375 8.226875 4.5675 8.45375 5.375 8.6875 C8 10 8 10 9.3125 12.625 C9.6528125 13.800625 9.6528125 13.800625 10 15 C12.64 14.67 15.28 14.34 18 14 C17.67 16.31 17.34 18.62 17 21 C15.375 21.8125 15.375 21.8125 13 22 C8.18160247 18.57139876 5.38405495 15.01986987 2.5625 9.875 C2.19962891 9.25496094 1.83675781 8.63492187 1.46289062 7.99609375 C0.55277655 6.37772646 -0.23340471 4.69108013 -1 3 C-0.67 2.01 -0.34 1.02 0 0 Z " fill="#2979B1" transform="translate(334,328)"/>
<path d="M0 0 C6.85468615 2.04950094 13.12534927 4.83286501 19.5 8.0625 C20.40492188 8.50916016 21.30984375 8.95582031 22.2421875 9.41601562 C23.10070312 9.84720703 23.95921875 10.27839844 24.84375 10.72265625 C26.00680664 11.30672241 26.00680664 11.30672241 27.19335938 11.90258789 C29 13 29 13 30 15 C26.23197087 15.814709 22.85318348 16 19 16 C18.67 15.01 18.34 14.02 18 13 C18.33 12.67 18.66 12.34 19 12 C18.31292969 11.75765625 17.62585938 11.5153125 16.91796875 11.265625 C16.01691406 10.93046875 15.11585938 10.5953125 14.1875 10.25 C13.29417969 9.92515625 12.40085937 9.6003125 11.48046875 9.265625 C8.73162781 7.86306679 7.74944046 6.48176437 6 4 C3.40144267 3.1957792 3.40144267 3.1957792 1 3 C0.67 2.01 0.34 1.02 0 0 Z " fill="#2170AF" transform="translate(344,22)"/>
<path d="M0 0 C0 0.66 0 1.32 0 2 C2.64 1.67 5.28 1.34 8 1 C9.25345205 8.36403082 10.30579029 16.0404415 7 23 C6.01 23.33 5.02 23.66 4 24 C4.15847412 23.42024414 4.31694824 22.84048828 4.48022461 22.24316406 C5.28088618 18.78779602 5.37223082 15.28089697 5.5625 11.75 C5.60568359 11.00492188 5.64886719 10.25984375 5.69335938 9.4921875 C5.79896725 7.661651 5.89994201 5.83084824 6 4 C5.01 4.495 5.01 4.495 4 5 C-1.23965246 4.86376904 -6.10432344 3.88295252 -11 2 C-11 1.67 -11 1.34 -11 1 C-7.27569643 0.30710631 -3.78916254 -0.11144596 0 0 Z " fill="#459EC4" transform="translate(222,168)"/>
<path d="M0 0 C2.97 0 5.94 0 9 0 C9.33 0.66 9.66 1.32 10 2 C10.33 1.34 10.66 0.68 11 0 C11.928125 0.165 12.85625 0.33 13.8125 0.5 C16.95621353 1.07748388 16.95621353 1.07748388 20 1 C19.34 2.32 18.68 3.64 18 5 C19.258125 5.144375 20.51625 5.28875 21.8125 5.4375 C24.42667123 5.73748686 26.47439892 6.15813297 29 7 C29 7.66 29 8.32 29 9 C22.26567877 8.43615943 16.36541026 6.65441874 10 4.4375 C9.03449219 4.10814453 8.06898438 3.77878906 7.07421875 3.43945312 C4.71370194 2.63313798 2.35583283 1.81987837 0 1 C0 0.67 0 0.34 0 0 Z " fill="#46A9CB" transform="translate(163,488)"/>
<path d="M0 0 C4.81272491 5.34747212 8.94448675 11.5581786 9.0625 18.875 C7.90811159 24.37532123 5.89266036 29.71815712 4 35 C3.34 35 2.68 35 2 35 C2.26041667 33.046875 2.52083333 31.09375 2.78125 29.140625 C3.06777357 26.69541605 3.06777357 26.69541605 3 23 C3.66 23 4.32 23 5 23 C4.67 22.01 4.34 21.02 4 20 C4.185625 19.071875 4.37125 18.14375 4.5625 17.1875 C5.07210218 13.47468409 4.3516001 11.45408915 3 8 C2.65023242 6.67088318 2.30903983 5.33917261 2 4 C1.34 4 0.68 4 0 4 C0 2.68 0 1.36 0 0 Z " fill="#368ABC" transform="translate(285,236)"/>
<path d="M0 0 C6.0743502 4.19419418 8.76926262 9.46486021 12 16 C12.33 16.66 12.66 17.32 13 18 C13.0716735 20.55157655 13.09308442 23.07472971 13.0625 25.625 C13.05798828 26.33140625 13.05347656 27.0378125 13.04882812 27.765625 C13.03703875 29.51045275 13.01910324 31.255237 13 33 C12.67 33 12.34 33 12 33 C11.67 31.02 11.34 29.04 11 27 C10.34 27 9.68 27 9 27 C9.02320313 26.38511719 9.04640625 25.77023437 9.0703125 25.13671875 C9.08835938 24.32847656 9.10640625 23.52023438 9.125 22.6875 C9.14820313 21.88699219 9.17140625 21.08648437 9.1953125 20.26171875 C9.15817322 17.71611424 9.15817322 17.71611424 7 15 C6.3671875 12.73828125 6.3671875 12.73828125 5.875 10.3125 C5.70742187 9.50425781 5.53984375 8.69601563 5.3671875 7.86328125 C5.24601563 7.24839844 5.12484375 6.63351563 5 6 C3.68 6 2.36 6 1 6 C0.67 4.02 0.34 2.04 0 0 Z " fill="#499FC3" transform="translate(219,232)"/>
<path d="M0 0 C0.81791016 0.59748047 0.81791016 0.59748047 1.65234375 1.20703125 C9.2206903 6.52427985 16.00259 9.16160672 25.25 9.69140625 C25.8275 9.79324219 26.405 9.89507812 27 10 C27.33 10.66 27.66 11.32 28 12 C16.94791034 12.63490728 7.45636409 9.78844105 -2 4 C-2.33 3.34 -2.66 2.68 -3 2 C-2.34 2 -1.68 2 -1 2 C-0.67 1.34 -0.34 0.68 0 0 Z " fill="#CDEEFA" transform="translate(348,352)"/>
<path d="M0 0 C0.66 0 1.32 0 2 0 C1.87431641 0.85271484 1.87431641 0.85271484 1.74609375 1.72265625 C0.93973989 7.83665579 1.0239071 13.07172131 3 19 C3.66 19.33 4.32 19.66 5 20 C5.625 22.5625 5.625 22.5625 6 25 C6.66 25 7.32 25 8 25 C8.33 26.98 8.66 28.96 9 31 C8.01 31.33 7.02 31.66 6 32 C4.84009704 29.19261085 3.69709263 26.38010869 2.5625 23.5625 C2.07426758 22.3878418 2.07426758 22.3878418 1.57617188 21.18945312 C-0.90897045 14.9637873 -3.08483146 8.54378277 -1.0625 1.9375 C-0.711875 1.298125 -0.36125 0.65875 0 0 Z " fill="#2F7DB8" transform="translate(326,296)"/>
<path d="M0 0 C0.33 0.66 0.66 1.32 1 2 C1.66 2 2.32 2 3 2 C3 2.66 3 3.32 3 4 C3.99 3.67 4.98 3.34 6 3 C8.06097408 4.77993216 8.95735532 5.86878559 9.8125 8.5 C11.44248741 11.93155244 13.57657813 12.58597792 17 14 C17 14.99 17 15.98 17 17 C18.65 17.33 20.3 17.66 22 18 C22 18.66 22 19.32 22 20 C22.66 20 23.32 20 24 20 C25.625 21.375 25.625 21.375 27 23 C27 23.66 27 24.32 27 25 C23.02384217 23.27634537 19.75437497 20.66255173 16.375 18 C15.76124512 17.51813232 15.14749023 17.03626465 14.51513672 16.53979492 C8.9266882 12.07733362 3.90424168 7.20934428 -1 2 C-0.67 1.34 -0.34 0.68 0 0 Z " fill="#5FC1D2" transform="translate(75,430)"/>
<path d="M0 0 C0.99 0.33 1.98 0.66 3 1 C3.763125 0.773125 4.52625 0.54625 5.3125 0.3125 C8 0 8 0 11.1875 1.5625 C14.31345605 4.27166191 15.09613552 6.02299628 16 10 C14.35 10.66 12.7 11.32 11 12 C10.67 11.34 10.34 10.68 10 10 C10.33 9.01 10.66 8.02 11 7 C10.34 6.67 9.68 6.34 9 6 C9.33 5.67 9.66 5.34 10 5 C6.28400809 4.79913557 5.22791555 4.8480563 2 7 C1.67 6.01 1.34 5.02 1 4 C0.01 3.67 -0.98 3.34 -2 3 C-1.34 2.01 -0.68 1.02 0 0 Z " fill="#186CB9" transform="translate(367,36)"/>
<path d="M0 0 C-5.88770122 3.92513415 -13.0373275 5.24318777 -20 6 C-20.33 6.99 -20.66 7.98 -21 9 C-22.11375 9.12375 -22.11375 9.12375 -23.25 9.25 C-26.51221354 10.1396946 -27.80954878 11.48503749 -30 14 C-30 11 -30 11 -28.6796875 9.5 C-19.86335715 2.17214101 -11.35376803 -0.47307367 0 0 Z " fill="#DFF9FC" transform="translate(199,224)"/>
<path d="M0 0 C4.48410364 4.15133157 7.85035049 8.79385556 11.3125 13.8125 C12.13717773 14.99489258 12.13717773 14.99489258 12.97851562 16.20117188 C14.32356086 18.13101938 15.66388807 20.06396201 17 22 C16.67 22.66 16.34 23.32 16 24 C12.74475735 20.97727468 10.38179263 17.74281699 8 14 C6.02 14.99 6.02 14.99 4 16 C4 13.69 4 11.38 4 9 C3.01 8.67 2.02 8.34 1 8 C0.67 5.36 0.34 2.72 0 0 Z " fill="#14539F" transform="translate(444,96)"/>
<path d="M0 0 C5.61 0 11.22 0 17 0 C15.61299727 2.77400546 13.65738286 3.42972831 11 5 C9.31522656 6.31037934 7.64351457 7.63823078 6 9 C5.7525 8.05125 5.505 7.1025 5.25 6.125 C4.3142923 2.91306809 4.3142923 2.91306809 1.875 1.625 C1.25625 1.41875 0.6375 1.2125 0 1 C0 0.67 0 0.34 0 0 Z " fill="#D2EBF7" transform="translate(336,232)"/>
<path d="M0 0 C3.36452403 3.8214347 4.8915246 8.33695769 6.75 13 C9.92124661 20.77148426 13.47302015 27.91244717 18 35 C16.078125 34.1953125 16.078125 34.1953125 14 33 C12.75 29.875 12.75 29.875 12 27 C11.34 27 10.68 27 10 27 C8.5393715 24.35261084 8 23.10551666 8 20 C7.34 20 6.68 20 6 20 C6 18.35 6 16.7 6 15 C5.34 15 4.68 15 4 15 C4 13.68 4 12.36 4 11 C3.34 11 2.68 11 2 11 C0.80712589 7.12315913 0 4.08378077 0 0 Z " fill="#3F86B7" transform="translate(311,303)"/>
<path d="M0 0 C4 4.75 4 4.75 4 7 C4.66 7 5.32 7 6 7 C10 11.47058824 10 11.47058824 10 14 C7.69 14.33 5.38 14.66 3 15 C2.67 11.7 2.34 8.4 2 5 C0.02 5.33 -1.96 5.66 -4 6 C-4 5.01 -4 4.02 -4 3 C-2 1.3125 -2 1.3125 0 0 Z " fill="#3EACD3" transform="translate(166,273)"/>
<path d="M0 0 C0.66 0.33 1.32 0.66 2 1 C-9.52164009 14.6332574 -9.52164009 14.6332574 -15 21 C-15.33 19.68 -15.66 18.36 -16 17 C-15.34 17 -14.68 17 -14 17 C-14 16.34 -14 15.68 -14 15 C-13.34 15 -12.68 15 -12 15 C-12 14.34 -12 13.68 -12 13 C-11.34 13 -10.68 13 -10 13 C-8.74335022 10.09399739 -8 8.20395416 -8 5 C-7.38125 4.896875 -6.7625 4.79375 -6.125 4.6875 C-3.63473516 4.12474627 -3.63473516 4.12474627 -2 1 C-1.34 0.67 -0.68 0.34 0 0 Z " fill="#15579D" transform="translate(449,403)"/>
<path d="M0 0 C3.76217811 3.76217811 4.91000854 9.4408815 6.6875 14.375 C7.11611328 15.52484375 7.54472656 16.6746875 7.98632812 17.859375 C8.38658203 18.96539062 8.78683594 20.07140625 9.19921875 21.2109375 C9.56877686 22.22462402 9.93833496 23.23831055 10.3190918 24.28271484 C11.01103751 27.04404714 10.98272913 28.37181649 10 31 C7.25609141 25.10825719 4.93624298 19.20477864 3 13 C2.01 13.495 2.01 13.495 1 14 C1.020625 12.80375 1.04125 11.6075 1.0625 10.375 C1.06882571 6.81995131 0.69888875 3.49444376 0 0 Z " fill="#4794BE" transform="translate(263,287)"/>
<path d="M0 0 C0.33 0.66 0.66 1.32 1 2 C0.54173828 2.98226562 0.54173828 2.98226562 0.07421875 3.984375 C-1.49684516 8.39477986 -1.25016036 12.60653738 -1.1875 17.25 C-1.18685547 18.17296875 -1.18621094 19.0959375 -1.18554688 20.046875 C-1.54798177 24.35497794 -1.54798177 24.35497794 0 28 C0.04063832 29.66617115 0.042721 31.33388095 0 33 C-4.51509367 28.48490633 -4.36505797 23.20739775 -4.375 17.1875 C-4.41173828 16.03411133 -4.41173828 16.03411133 -4.44921875 14.85742188 C-4.47936957 8.90263572 -2.97117685 5.14964842 0 0 Z " fill="#DBF8FC" transform="translate(167,238)"/>
<path d="M0 0 C0.66 0 1.32 0 2 0 C2.50719424 8.79136691 2.50719424 8.79136691 -1 13 C-1.72481084 16.65274469 -1.72481084 16.65274469 -2 20 C-2.99 19.34 -3.98 18.68 -5 18 C-4.835 16.906875 -4.67 15.81375 -4.5 14.6875 C-3.93281816 11.12474127 -3.93281816 11.12474127 -4 8 C-3.125 5.95703125 -3.125 5.95703125 -2 3.8125 C-1.62875 3.09707031 -1.2575 2.38164062 -0.875 1.64453125 C-0.441875 0.83048828 -0.441875 0.83048828 0 0 Z " fill="#298BC5" transform="translate(283,272)"/>
<path d="M0 0 C0.66 0.33 1.32 0.66 2 1 C1.6889315 3.06271639 1.37608484 5.12516466 1.0625 7.1875 C0.88847656 8.33605469 0.71445313 9.48460937 0.53515625 10.66796875 C0.20904449 12.69843104 -0.14984609 14.72442832 -0.56640625 16.73828125 C-1.09414057 19.10723995 -1.09414057 19.10723995 -1 22 C-2 24.1875 -2 24.1875 -3 26 C-3.33 26 -3.66 26 -4 26 C-3.85811015 23.45805839 -3.71160845 20.91652007 -3.5625 18.375 C-3.52318359 17.66214844 -3.48386719 16.94929688 -3.44335938 16.21484375 C-3.19690319 12.08196318 -2.76529947 8.07730976 -2 4 C-1.34 4 -0.68 4 0 4 C0 2.68 0 1.36 0 0 Z " fill="#66DBDD" transform="translate(4,212)"/>
<path d="M0 0 C3.95262502 1.97631251 4.75917978 7.90162753 6.1875 11.875 C6.56841797 12.89464844 6.94933594 13.91429687 7.34179688 14.96484375 C7.69693359 15.94324219 8.05207031 16.92164063 8.41796875 17.9296875 C8.74563232 18.82929199 9.0732959 19.72889648 9.41088867 20.65576172 C10 23 10 23 9 26 C6.77858289 21.89892226 4 16.73442329 4 12 C3.01 11.67 2.02 11.34 1 11 C0.67 7.37 0.34 3.74 0 0 Z " fill="#4697BF" transform="translate(249,249)"/>
<path d="M0 0 C1.27875 -0.061875 2.5575 -0.12375 3.875 -0.1875 C4.95394531 -0.23970703 4.95394531 -0.23970703 6.0546875 -0.29296875 C6.69664062 -0.19628906 7.33859375 -0.09960938 8 0 C8.66 0.99 9.32 1.98 10 3 C9.67 3.66 9.34 4.32 9 5 C6.71484375 5.6328125 6.71484375 5.6328125 3.9375 6.125 C3.01839844 6.29257812 2.09929687 6.46015625 1.15234375 6.6328125 C0.08693359 6.81457031 0.08693359 6.81457031 -1 7 C-1 3 -1 3 0 0 Z " fill="#1B74BC" transform="translate(354,472)"/>
<path d="M0 0 C3.46071059 0.61228642 6.91802866 1.24197018 10.375 1.875 C11.35984375 2.04902344 12.3446875 2.22304688 13.359375 2.40234375 C14.30039062 2.57636719 15.24140625 2.75039063 16.2109375 2.9296875 C17.08024902 3.08679199 17.94956055 3.24389648 18.84521484 3.40576172 C21 4 21 4 23 6 C22.01 6.66 21.02 7.32 20 8 C19.443125 7.67 18.88625 7.34 18.3125 7 C15.69715478 5.8690399 13.8193354 5.84337026 11 6 C11 6.66 11 7.32 11 8 C9 7 9 7 8 4 C7.01 4.66 6.02 5.32 5 6 C4.67 5.01 4.34 4.02 4 3 C1.98491642 2.26676204 1.98491642 2.26676204 0 2 C0 1.34 0 0.68 0 0 Z " fill="#2272B7" transform="translate(352,360)"/>
<path d="M0 0 C2.125 0.375 2.125 0.375 4 1 C3.67 1.66 3.34 2.32 3 3 C3.66 3.33 4.32 3.66 5 4 C5.66 4.66 6.32 5.32 7 6 C8.64991582 6.70710678 10.31562256 7.37943989 12 8 C12 8.33 12 8.66 12 9 C6.34388537 9.56561146 2.77357872 7.71391278 -2 5 C-2 2 -2 2 0 0 Z " fill="#2776B7" transform="translate(356,352)"/>
<path d="M0 0 C8.60763876 0.18638588 18.64919507 1.64919507 25 8 C21.97580475 7.41196203 18.98241547 6.77321882 16 6 C15.67 6.66 15.34 7.32 15 8 C14.76023437 7.35160156 14.52046875 6.70320312 14.2734375 6.03515625 C13.20391485 3.80207317 13.20391485 3.80207317 10.9765625 3.49609375 C10.20054687 3.47675781 9.42453125 3.45742187 8.625 3.4375 C4.76244957 3.32769505 2.940323 2.53082596 0 0 Z " fill="#4597C2" transform="translate(242,208)"/>
<path d="M0 0 C4.72843614 1.57313172 8.3433843 4.20641235 12.3125 7.125 C12.95767578 7.59292969 13.60285156 8.06085937 14.26757812 8.54296875 C15.84848894 9.6905929 17.42472301 10.84465477 19 12 C16 13 16 13 14 12.25 C12 11 12 11 10.6875 9.5 C8.91170934 7.6790789 8.91170934 7.6790789 5.4375 7.1875 C4.303125 6.795625 3.16875 6.40375 2 6 C0.5625 2.875 0.5625 2.875 0 0 Z " fill="#2164A1" transform="translate(381,41)"/>
<path d="M0 0 C7.30484887 -0.28591961 13.98128341 0.51507015 21.125 2 C22.08148438 2.19078125 23.03796875 2.3815625 24.0234375 2.578125 C26.35081492 3.04360048 28.67607444 3.51763952 31 4 C31 4.33 31 4.66 31 5 C25.39 4.67 19.78 4.34 14 4 C14 3.34 14 2.68 14 2 C9.71 2 5.42 2 1 2 C0.67 1.34 0.34 0.68 0 0 Z " fill="#3D83AD" transform="translate(274,5)"/>
<path d="M0 0 C0.66 0.33 1.32 0.66 2 1 C0.625 3.5 0.625 3.5 -1 6 C-1.66 6 -2.32 6 -3 6 C-3.11472656 6.58652344 -3.22945312 7.17304688 -3.34765625 7.77734375 C-4.04497517 10.15323874 -4.95419644 11.59503207 -6.4375 13.5625 C-8.020946 15.68479031 -9.52858389 17.79287584 -11 20 C-10.37507152 11.87592981 -5.96742685 5.28543521 0 0 Z " fill="#56ACC9" transform="translate(182,230)"/>
<path d="M0 0 C1.48484412 0.39595843 2.9628831 0.81750706 4.4375 1.25 C5.26121094 1.48203125 6.08492187 1.7140625 6.93359375 1.953125 C9 3 9 3 9.78515625 5.109375 C9.85605469 5.73328125 9.92695313 6.3571875 10 7 C10.99 7 11.98 7 13 7 C13 8.98 13 10.96 13 13 C8.11950075 9.0580583 3.9419417 4.88049925 0 0 Z " fill="#3D98C1" transform="translate(220,217)"/>
<path d="M0 0 C10.09759268 -0.2999285 19.37069489 -0.56326709 29 3 C28.01 3.495 28.01 3.495 27 4 C26.67 4.66 26.34 5.32 26 6 C25.21238281 5.72285156 24.42476563 5.44570312 23.61328125 5.16015625 C15.68265028 2.5228695 8.34601736 1.27319206 0 1 C0 0.67 0 0.34 0 0 Z " fill="#C9F4FC" transform="translate(235,207)"/>
<path d="M0 0 C2.31 0.33 4.62 0.66 7 1 C3.39955848 3.02867517 -0.40803684 4.07078735 -4.375 5.125 C-5.02210938 5.30675781 -5.66921875 5.48851562 -6.3359375 5.67578125 C-10.31790006 6.74352524 -13.88390965 7.19114971 -18 7 C-18 6.34 -18 5.68 -18 5 C-13.29872042 3.68364172 -8.45642813 3.18879624 -3.625 2.5625 C-2.75875 2.376875 -1.8925 2.19125 -1 2 C-0.67 1.34 -0.34 0.68 0 0 Z " fill="#337DAF" transform="translate(316,492)"/>
<path d="M0 0 C3.24838923 1.08279641 4.04282583 1.89036845 6.1875 4.4375 C6.71730469 5.05496094 7.24710938 5.67242187 7.79296875 6.30859375 C9 8 9 8 9 10 C9.99 10.33 10.98 10.66 12 11 C12 11.66 12 12.32 12 13 C12.66 13 13.32 13 14 13 C15.38232443 14.62626404 16.71937515 16.2925002 18 18 C17.67 18.66 17.34 19.32 17 20 C14.91349269 17.94062935 12.83075945 15.87766489 10.75 13.8125 C10.16347656 13.23435547 9.57695313 12.65621094 8.97265625 12.06054688 C5.75880103 8.86474702 2.65054279 5.69370195 0 2 C0 1.34 0 0.68 0 0 Z " fill="#66C8D4" transform="translate(56,411)"/>
<path d="M0 0 C0.99 1.0209375 0.99 1.0209375 2 2.0625 C8.8203673 8.96239085 8.8203673 8.96239085 17 14 C17 14.66 17 15.32 17 16 C10.90140505 15.76083941 10.90140505 15.76083941 8.421875 13.66796875 C5 9.62661638 5 9.62661638 5 7 C4.34 7 3.68 7 3 7 C0 2.61538462 0 2.61538462 0 0 Z " fill="#47A9C9" transform="translate(167,273)"/>
<path d="M0 0 C-0.33 2.31 -0.66 4.62 -1 7 C-4.75 8.125 -4.75 8.125 -7 7 C-7.72159424 5.35636866 -8.39351421 3.68949614 -9 2 C-3.375 0 -3.375 0 0 0 Z " fill="#1D76BC" transform="translate(352,342)"/>
<path d="M0 0 C5.39882424 4.59474404 10.71333087 9.27676273 16 14 C14.68 14.33 13.36 14.66 12 15 C11.608125 14.195625 11.21625 13.39125 10.8125 12.5625 C10.214375 11.716875 9.61625 10.87125 9 10 C8.195625 9.87625 7.39125 9.7525 6.5625 9.625 C4 9 4 9 2.7890625 7.46484375 C0 2.64827128 0 2.64827128 0 0 Z " fill="#4B9FC4" transform="translate(199,213)"/>
<path d="M0 0 C0.66 0.33 1.32 0.66 2 1 C2.64746901 3.57502581 3.1719291 6.07771916 3.625 8.6875 C3.7590625 9.39583984 3.893125 10.10417969 4.03125 10.83398438 C4.77452983 14.94098464 5.14522496 18.8082797 5 23 C2.91902818 19.87854227 2.55247451 18.19797956 2 14.5625 C1.44691629 10.93288818 0.63381185 8.26064161 -1 5 C-0.625 2.25 -0.625 2.25 0 0 Z " fill="#0E4796" transform="translate(493,199)"/>
<path d="M0 0 C3.62528568 -0.20140476 5.86501708 0.14223235 9 2 C5.31542672 4.23013646 2.19686465 6.02073158 -2 7 C-1.67 5.68 -1.34 4.36 -1 3 C-1.99 2.67 -2.98 2.34 -4 2 C-2.68 2 -1.36 2 0 2 C0 1.34 0 0.68 0 0 Z " fill="#1368B8" transform="translate(395,448)"/>
<path d="M0 0 C0.66 0.33 1.32 0.66 2 1 C2.6328125 3.06640625 2.6328125 3.06640625 3.125 5.5625 C3.29257812 6.38878906 3.46015625 7.21507812 3.6328125 8.06640625 C3.75398438 8.70449219 3.87515625 9.34257812 4 10 C1.92446352 10.5534764 0.15634036 11 -2 11 C-2.19622241 6.78121808 -1.80230168 3.82989106 0 0 Z " fill="#2D84BC" transform="translate(307,293)"/>
<path d="M0 0 C0.66 0.33 1.32 0.66 2 1 C1.38125 1.99 0.7625 2.98 0.125 4 C-3.1779573 10.46536323 -3.34333102 17.88032578 -4 25 C-4.33 25 -4.66 25 -5 25 C-5.92255125 6.95899772 -5.92255125 6.95899772 0 0 Z " fill="#DCF8FC" transform="translate(174,237)"/>
<path d="M0 0 C0.99 0.33 1.98 0.66 3 1 C2.2884375 1.99 2.2884375 1.99 1.5625 3 C-0.41317854 6.7933028 -0.64027463 9.75524068 -1 14 C-1.33 14 -1.66 14 -2 14 C-2.33 12.35 -2.66 10.7 -3 9 C-3.99 10.32 -4.98 11.64 -6 13 C-5.63118644 6.85310727 -4.09949571 4.30972626 0 0 Z " fill="#DDFBFD" transform="translate(192,174)"/>
<path d="M0 0 C0 0.33 0 0.66 0 1 C-1.08539063 1.19335938 -2.17078125 1.38671875 -3.2890625 1.5859375 C-4.73441668 1.84872917 -6.17972688 2.11176286 -7.625 2.375 C-8.33785156 2.50132812 -9.05070313 2.62765625 -9.78515625 2.7578125 C-13.99905953 3.53100576 -17.95880171 4.53395015 -22 6 C-21.67 4.35 -21.34 2.7 -21 1 C-20.34 1.33 -19.68 1.66 -19 2 C-17.14683461 1.49459126 -15.29378215 0.98876343 -13.44140625 0.48046875 C-8.99792456 -0.39400845 -4.50821809 -0.14916898 0 0 Z " fill="#4CA7C7" transform="translate(198,223)"/>
<path d="M0 0 C0.33 0 0.66 0 1 0 C1.62774507 8.78843098 -0.69215289 16.60314556 -3 25 C-3.33 25 -3.66 25 -4 25 C-3.55046968 16.39691968 -2.13898002 8.34067679 0 0 Z " fill="#77D4D8" transform="translate(7,191)"/>
<path d="M0 0 C3.59995233 0.58618693 6.47406507 1.52598397 9.6875 3.25 C10.83798828 3.84554687 10.83798828 3.84554687 12.01171875 4.453125 C14.46432125 6.36124011 15.08224143 8.07495129 16 11 C15.43152344 10.60167969 14.86304688 10.20335937 14.27734375 9.79296875 C9.64274107 6.61296591 5.2500166 4.01064466 0 2 C0 1.34 0 0.68 0 0 Z " fill="#4290BC" transform="translate(268,211)"/>
<path d="M0 0 C2.97 0.495 2.97 0.495 6 1 C5.67 2.65 5.34 4.3 5 6 C4.01 6 3.02 6 2 6 C1.67 6.66 1.34 7.32 1 8 C0.34 7.34 -0.32 6.68 -1 6 C-0.625 2.875 -0.625 2.875 0 0 Z " fill="#349ECB" transform="translate(218,208)"/>
<path d="M0 0 C2.97 0.495 2.97 0.495 6 1 C6.33 1.99 6.66 2.98 7 4 C6.01 4 5.02 4 4 4 C3.67 4.99 3.34 5.98 3 7 C1.35 7 -0.3 7 -2 7 C-1.34 4.69 -0.68 2.38 0 0 Z " fill="#1F82C4" transform="translate(312,488)"/>
<path d="M0 0 C-3.16566573 2.11044382 -5.51197415 2.75552077 -9.1875 3.625 C-10.27417969 3.88539063 -11.36085937 4.14578125 -12.48046875 4.4140625 C-13.31191406 4.60742188 -14.14335937 4.80078125 -15 5 C-15.66 4.01 -16.32 3.02 -17 2 C-11.16200408 0.30167391 -6.06892629 -0.25287193 0 0 Z " fill="#C3EFF8" transform="translate(199,224)"/>
<path d="M0 0 C0.33 1.65 0.66 3.3 1 5 C0.01 5.33 -0.98 5.66 -2 6 C-2 5.34 -2 4.68 -2 4 C-3.65 4 -5.3 4 -7 4 C-7 2.68 -7 1.36 -7 0 C-3.86650268 -1.04449911 -3.01031744 -0.93423645 0 0 Z " fill="#1A77BF" transform="translate(351,26)"/>
<path d="M0 0 C2 1.375 2 1.375 4 3 C4 3.66 4 4.32 4 5 C4.66 5 5.32 5 6 5 C6 5.66 6 6.32 6 7 C6.66 7.33 7.32 7.66 8 8 C6.35 8 4.7 8 3 8 C3 7.01 3 6.02 3 5 C2.34 5 1.68 5 1 5 C1 6.32 1 7.64 1 9 C0.34 9 -0.32 9 -1 9 C-0.67 6.03 -0.34 3.06 0 0 Z " fill="#0E65B8" transform="translate(409,63)"/>
<path d="M0 0 C2 0 2 0 4.5625 2.4375 C7.6846128 6.26667953 7.88258446 10.19663691 8 15 C5.51372483 11.9377256 3.90010596 8.8542946 2.3125 5.25 C1.87550781 4.26515625 1.43851562 3.2803125 0.98828125 2.265625 C0.66214844 1.51796875 0.33601563 0.7703125 0 0 Z " fill="#3A86B8" transform="translate(301,244)"/>
<path d="M0 0 C3.33049122 1.42630308 5.31738937 3.15014396 7.6875 5.875 C8.28949219 6.55304688 8.89148438 7.23109375 9.51171875 7.9296875 C11.00766194 10.01065834 11.5789756 11.49630826 12 14 C11.01 14.495 11.01 14.495 10 15 C9.896875 14.401875 9.79375 13.80375 9.6875 13.1875 C8.87482635 10.6017202 8.01062204 9.79519825 6 8 C1.11627907 3.34883721 1.11627907 3.34883721 0 0 Z " fill="#519FBF" transform="translate(214,173)"/>
<path d="M0 0 C1.37562854 1.28965176 2.70766393 2.62689293 4 4 C4 4.66 4 5.32 4 6 C3.01 6.33 2.02 6.66 1 7 C2.32 7 3.64 7 5 7 C5.33 7.99 5.66 8.98 6 10 C5.401875 9.835 4.80375 9.67 4.1875 9.5 C1.88655664 8.8885876 1.88655664 8.8885876 -1 9 C-1.07427838 5.65747276 -1.06546953 3.1964086 0 0 Z " fill="#0856B0" transform="translate(458,118)"/>
<path d="M0 0 C0 0.66 0 1.32 0 2 C0.66 2.33 1.32 2.66 2 3 C2.33 3.66 2.66 4.32 3 5 C-0.75 6.125 -0.75 6.125 -3 5 C-3.33 5.66 -3.66 6.32 -4 7 C-4.66 6.01 -5.32 5.02 -6 4 C-2.25 0 -2.25 0 0 0 Z " fill="#0453AD" transform="translate(477,153)"/>
<path d="M0 0 C0 0.33 0 0.66 0 1 C-2.18542332 1.36676314 -4.37348406 1.717827 -6.5625 2.0625 C-7.78066406 2.25972656 -8.99882812 2.45695313 -10.25390625 2.66015625 C-14.05460049 3.00495333 -17.2590233 2.68849378 -21 2 C-21 1.67 -21 1.34 -21 1 C-14.03220597 -0.32719886 -7.07011089 -0.08825381 0 0 Z " fill="#4598BC" transform="translate(231,5)"/>
<path d="M0 0 C1.32 0.66 2.64 1.32 4 2 C0.04 3.98 -3.92 5.96 -8 8 C-6 3 -6 3 -3.4375 1.75 C-2.633125 1.5025 -1.82875 1.255 -1 1 C-0.67 0.67 -0.34 0.34 0 0 Z " fill="#236CA9" transform="translate(371,469)"/>
<path d="M0 0 C0.33 0.99 0.66 1.98 1 3 C1.66 3 2.32 3 3 3 C3 3.99 3 4.98 3 6 C0.69 6 -1.62 6 -4 6 C-4.33 5.01 -4.66 4.02 -5 3 C-3.35 2.01 -1.7 1.02 0 0 Z " fill="#176FBB" transform="translate(374,464)"/>
<path d="M0 0 C1.98 0 3.96 0 6 0 C0.35475578 5.80205656 0.35475578 5.80205656 -3 8 C-3.66 8 -4.32 8 -5 8 C-5 7.01 -5 6.02 -5 5 C-3.35178756 3.96986723 -1.68496298 2.96885372 0 2 C0 1.34 0 0.68 0 0 Z " fill="#1D64A4" transform="translate(396,452)"/>
<path d="M0 0 C1.32 0.33 2.64 0.66 4 1 C4.33 4.3 4.66 7.6 5 11 C4.01 11 3.02 11 2 11 C1.34 7.37 0.68 3.74 0 0 Z " fill="#2183C5" transform="translate(307,248)"/>
<path d="M0 0 C2.475 0.495 2.475 0.495 5 1 C4.49287967 4.71888239 3.88391785 7.73454239 2 11 C1.34 10.67 0.68 10.34 0 10 C0.875 5.25 0.875 5.25 2 3 C1.34 3 0.68 3 0 3 C0 2.01 0 1.02 0 0 Z " fill="#3CAFD2" transform="translate(161,233)"/>
<path d="M0 0 C0.12375 0.61875 0.2475 1.2375 0.375 1.875 C0.87197356 4.19120832 0.87197356 4.19120832 3 6 C-0.71888239 5.49287967 -3.73454239 4.88391785 -7 3 C-3.375 0 -3.375 0 0 0 Z " fill="#49B5D0" transform="translate(143,474)"/>
<path d="M0 0 C0.66 0 1.32 0 2 0 C2 1.32 2 2.64 2 4 C1.34 4 0.68 4 0 4 C0 5.65 0 7.3 0 9 C-0.99 9 -1.98 9 -3 9 C-3.33 7.35 -3.66 5.7 -4 4 C-3.34 4 -2.68 4 -2 4 C-1.34 2.68 -0.68 1.36 0 0 Z " fill="#034BAA" transform="translate(493,299)"/>
<path d="M0 0 C0.66 0 1.32 0 2 0 C1.01 3.63 0.02 7.26 -1 11 C-3.5654594 8.4345406 -3.54046087 6.52313332 -4 3 C-3.01 3 -2.02 3 -1 3 C-0.67 2.01 -0.34 1.02 0 0 Z " fill="#3E8AB6" transform="translate(281,288)"/>
<path d="M0 0 C0.99 0.33 1.98 0.66 3 1 C3 1.99 3 2.98 3 4 C3.99 4 4.98 4 6 4 C6 4.66 6 5.32 6 6 C4.02 6.33 2.04 6.66 0 7 C-1.125 2.25 -1.125 2.25 0 0 Z " fill="#3BA3CE" transform="translate(196,190)"/>
<path d="M0 0 C1.85486952 2.78230428 2.72462112 4.84363607 3.6875 8 C3.95949219 8.86625 4.23148437 9.7325 4.51171875 10.625 C5 13 5 13 4 16 C4 15.34 4 14.68 4 14 C3.34 14 2.68 14 2 14 C0.66416101 9.15758367 -0.25328119 5.06562383 0 0 Z " fill="#104B93" transform="translate(485,168)"/>
<path d="M0 0 C0.66 0 1.32 0 2 0 C0.54955729 4.10958767 -1.51110752 7.43258745 -4 11 C-4.66 9.68 -5.32 8.36 -6 7 C-5.01 6.34 -4.02 5.68 -3 5 C-2.484375 4.13375 -1.96875 3.2675 -1.4375 2.375 C-0.963125 1.59125 -0.48875 0.8075 0 0 Z " fill="#144F97" transform="translate(465,378)"/>
<path d="M0 0 C0.6875 1.625 0.6875 1.625 1 4 C-0.4375 7.25 -0.4375 7.25 -2 10 C-2.33 10 -2.66 10 -3 10 C-3.33 7.69 -3.66 5.38 -4 3 C-2.68 2.01 -1.36 1.02 0 0 Z " fill="#4299C3" transform="translate(230,266)"/>
<path d="M0 0 C1.98 1.65 3.96 3.3 6 5 C5.34 6.32 4.68 7.64 4 9 C3.01 9 2.02 9 1 9 C0.67 6.03 0.34 3.06 0 0 Z " fill="#4BA6CA" transform="translate(193,207)"/>
<path d="M0 0 C0.33 0 0.66 0 1 0 C1.12375 1.134375 1.2475 2.26875 1.375 3.4375 C1.58125 4.613125 1.7875 5.78875 2 7 C2.66 7.33 3.32 7.66 4 8 C4.59355614 10.64860427 4.74209269 13.29197322 5 16 C1.98436105 13.25851004 0.14789375 10.78655645 -0.1953125 6.640625 C-0.17210937 5.85171875 -0.14890625 5.0628125 -0.125 4.25 C-0.10695312 3.45078125 -0.08890625 2.6515625 -0.0703125 1.828125 C-0.04710937 1.22484375 -0.02390625 0.6215625 0 0 Z " fill="#61ACCB" transform="translate(191,180)"/>
<path d="M0 0 C3.28465896 2.79196011 5.01321958 6.23196817 7 10 C7 10.66 7 11.32 7 12 C6.34 12 5.68 12 5 12 C2 7.61538462 2 7.61538462 2 5 C0.68 5 -0.64 5 -2 5 C-1.67 4.34 -1.34 3.68 -1 3 C-0.34 3.33 0.32 3.66 1 4 C0.67 2.68 0.34 1.36 0 0 Z " fill="#144E97" transform="translate(461,120)"/>
<path d="M0 0 C0.94314127 3.41610225 1.08065117 6.45134864 1 10 C-0.98 10.99 -0.98 10.99 -3 12 C-4.21386936 8.35839192 -3.6674695 7.66834531 -2.0625 4.3125 C-1.49208984 3.10013672 -1.49208984 3.10013672 -0.91015625 1.86328125 C-0.60980469 1.24839844 -0.30945313 0.63351562 0 0 Z " fill="#4D9EC6" transform="translate(239,266)"/>
<path d="M0 0 C1.00259507 3.00778521 1.30314642 5.53820647 1.5625 8.6875 C1.64628906 9.68136719 1.73007812 10.67523438 1.81640625 11.69921875 C1.87699219 12.45847656 1.93757813 13.21773438 2 14 C-0.34914492 11.65085508 -0.73140357 10.04320554 -1.625 6.875 C-1.88539063 5.96492188 -2.14578125 5.05484375 -2.4140625 4.1171875 C-2.60742188 3.41851562 -2.80078125 2.71984375 -3 2 C-2.01 1.34 -1.02 0.68 0 0 Z " fill="#3F8EBD" transform="translate(269,260)"/>
<path d="M0 0 C0.66 0 1.32 0 2 0 C3.32229189 2.64458379 3.09677194 4.67761301 3.0625 7.625 C3.05347656 8.62789063 3.04445312 9.63078125 3.03515625 10.6640625 C3.02355469 11.43492187 3.01195312 12.20578125 3 13 C2.67 13 2.34 13 2 13 C1.67 11.02 1.34 9.04 1 7 C0.34 7 -0.32 7 -1 7 C-0.67 4.69 -0.34 2.38 0 0 Z " fill="#3D96C4" transform="translate(229,252)"/>
<path d="M0 0 C0.99 0.33 1.98 0.66 3 1 C3 2.98 3 4.96 3 7 C2.01 7.495 2.01 7.495 1 8 C-2 3.25 -2 3.25 -2 1 C-1.34 0.67 -0.68 0.34 0 0 Z " fill="#FBFEFB" transform="translate(224,174)"/>
<path d="M0 0 C2.31 0.33 4.62 0.66 7 1 C7 1.99 7 2.98 7 4 C4.36 4.33 1.72 4.66 -1 5 C-1 4.34 -1 3.68 -1 3 C-0.34 3 0.32 3 1 3 C0.67 2.01 0.34 1.02 0 0 Z " fill="#1C7CC2" transform="translate(329,18)"/>
<path d="M0 0 C2.64 0 5.28 0 8 0 C8.33 0.66 8.66 1.32 9 2 C7.35 2 5.7 2 4 2 C4 2.66 4 3.32 4 4 C3.34 4 2.68 4 2 4 C1.67 4.66 1.34 5.32 1 6 C0 5 0 5 -0.0625 2.4375 C-0.041875 1.633125 -0.02125 0.82875 0 0 Z " fill="#1A7BC2" transform="translate(336,480)"/>
<path d="M0 0 C1.32 0.66 2.64 1.32 4 2 C3.67 3.32 3.34 4.64 3 6 C0.69 6 -1.62 6 -4 6 C-3 3 -3 3 0 1 C0 0.67 0 0.34 0 0 Z " fill="#1E7BC0" transform="translate(332,346)"/>
<path d="M0 0 C0.33 0 0.66 0 1 0 C1.31563182 5.26053037 0.66590937 8.44573816 -2 13 C-3.18771723 9.57056481 -2.80226223 7.62215325 -1.5625 4.25 C-1.27503906 3.45078125 -0.98757813 2.6515625 -0.69140625 1.828125 C-0.46324219 1.22484375 -0.23507812 0.6215625 0 0 Z " fill="#3480BA" transform="translate(330,282)"/>
<path d="M0 0 C0.99 0.33 1.98 0.66 3 1 C3.33 2.65 3.66 4.3 4 6 C-1.75 4.375 -1.75 4.375 -4 1 C-2.68 1.33 -1.36 1.66 0 2 C0 1.34 0 0.68 0 0 Z " fill="#51AACA" transform="translate(186,281)"/>
<path d="M0 0 C2.0625 1.75 2.0625 1.75 4 4 C3.75 6.25 3.75 6.25 3 8 C1.68 8 0.36 8 -1 8 C-0.67 5.36 -0.34 2.72 0 0 Z " fill="#2D84BB" transform="translate(299,272)"/>
<path d="M0 0 C3.72114571 2.31537955 6.61229661 4.28579473 9 8 C4.25 7.125 4.25 7.125 2 6 C2 5.34 2 4.68 2 4 C1.34 4 0.68 4 0 4 C0 2.68 0 1.36 0 0 Z " fill="#4090BD" transform="translate(267,216)"/>
<path d="M0 0 C2.0245738 1.93254772 3.42105792 3.63158688 5 6 C5 7.32 5 8.64 5 10 C4.34 10 3.68 10 3 10 C3 8.68 3 7.36 3 6 C1.68 5.67 0.36 5.34 -1 5 C-0.67 3.35 -0.34 1.7 0 0 Z " fill="#3AA8CF" transform="translate(185,198)"/>
<path d="M0 0 C0.25 7.625 0.25 7.625 -2 11 C-2.12375 9.329375 -2.12375 9.329375 -2.25 7.625 C-2.57873787 3.94246056 -2.57873787 3.94246056 -5.0625 2.5625 C-5.701875 2.376875 -6.34125 2.19125 -7 2 C-1.125 0 -1.125 0 0 0 Z " fill="#C6EEF8" transform="translate(229,171)"/>
<path d="M0 0 C1.9375 0.3125 1.9375 0.3125 4 1 C4.33 1.99 4.66 2.98 5 4 C3.68 3.67 2.36 3.34 1 3 C0.67 3.99 0.34 4.98 0 6 C-0.99 5.67 -1.98 5.34 -3 5 C-2.01 3.35 -1.02 1.7 0 0 Z " fill="#0959B2" transform="translate(451,392)"/>
<path d="M0 0 C-0.66 1.98 -1.32 3.96 -2 6 C-2.66 6 -3.32 6 -4 6 C-4.66 4.35 -5.32 2.7 -6 1 C-4 0 -4 0 0 0 Z " fill="#288AC4" transform="translate(288,216)"/>
<path d="M0 0 C4.75 0.75 4.75 0.75 7 3 C8.32392972 4.01241685 9.65599167 5.01439389 11 6 C10.67 6.66 10.34 7.32 10 8 C8.33055479 6.85821872 6.6645052 5.71147095 5 4.5625 C4.071875 3.92441406 3.14375 3.28632813 2.1875 2.62890625 C1.465625 2.09136719 0.74375 1.55382812 0 1 C0 0.67 0 0.34 0 0 Z " fill="#5DBAD1" transform="translate(102,455)"/>
<path d="M0 0 C1.90389849 2.85584773 2.69462177 4.9311762 3.625 8.1875 C3.88539063 9.08855469 4.14578125 9.98960937 4.4140625 10.91796875 C4.60742188 11.60503906 4.80078125 12.29210937 5 13 C4.01 12.34 3.02 11.68 2 11 C2 9.68 2 8.36 2 7 C1.01 6.67 0.02 6.34 -1 6 C-0.67 4.02 -0.34 2.04 0 0 Z " fill="#458FBD" transform="translate(297,261)"/>
<path d="M0 0 C0.66 0.99 1.32 1.98 2 3 C1.67 3.66 1.34 4.32 1 5 C0.34 5 -0.32 5 -1 5 C-1.33 6.65 -1.66 8.3 -2 10 C-2.33 10 -2.66 10 -3 10 C-3.36923077 3.47692308 -3.36923077 3.47692308 -1.5 1.0625 C-1.005 0.711875 -0.51 0.36125 0 0 Z " fill="#217DC0" transform="translate(335,255)"/>
<path d="M0 0 C1.65 0 3.3 0 5 0 C5.33 0.66 5.66 1.32 6 2 C5.34 2 4.68 2 4 2 C4 3.32 4 4.64 4 6 C1.525 5.01 1.525 5.01 -1 4 C-0.67 2.68 -0.34 1.36 0 0 Z " fill="#288CC4" transform="translate(274,209)"/>
<path d="M0 0 C2.09350689 3.4019487 2.17942163 6.05272412 2 10 C1.01 10.33 0.02 10.66 -1 11 C-1.02688151 9.35425434 -1.04634123 7.70838587 -1.0625 6.0625 C-1.07410156 5.14597656 -1.08570313 4.22945312 -1.09765625 3.28515625 C-1 1 -1 1 0 0 Z " fill="#024EAE" transform="translate(489,184)"/>
<path d="M0 0 C0 0.99 0 1.98 0 3 C-3.4019487 5.09350689 -6.05272412 5.17942163 -10 5 C-3.63636364 0 -3.63636364 0 0 0 Z " fill="#54B3C7" transform="translate(143,28)"/>
<path d="M0 0 C9.59453303 2.89066059 9.59453303 2.89066059 13 6 C10.625 6.125 10.625 6.125 8 6 C7.34 5.34 6.68 4.68 6 4 C3.42938689 3.35232207 3.42938689 3.35232207 1 3 C0.67 2.01 0.34 1.02 0 0 Z " fill="#2B70A3" transform="translate(344,22)"/>
<path d="M0 0 C1.79240663 0.11389875 3.58394835 0.24147687 5.375 0.375 C6.87160156 0.47941406 6.87160156 0.47941406 8.3984375 0.5859375 C11 1 11 1 13 3 C12.01 3.66 11.02 4.32 10 5 C9.46375 4.71125 8.9275 4.4225 8.375 4.125 C5.64719516 2.83288192 2.87387282 1.91441408 0 1 C0 0.67 0 0.34 0 0 Z " fill="#2670AC" transform="translate(362,363)"/>
<path d="M0 0 C0.66 0.33 1.32 0.66 2 1 C1.01 1.99 0.02 2.98 -1 4 C-0.67 2.68 -0.34 1.36 0 0 Z M-2 4 C-0.74458443 7.76624671 -1.62938042 9.37188934 -3 13 C-3.33 13 -3.66 13 -4 13 C-4 10.36 -4 7.72 -4 5 C-3.34 4.67 -2.68 4.34 -2 4 Z " fill="#41A2C8" transform="translate(196,175)"/>
<path d="M0 0 C1.8871875 0.0309375 1.8871875 0.0309375 3.8125 0.0625 C2.10421079 2.16883718 1.29101584 3.00051608 -1.44921875 3.35546875 C-2.24972656 3.32066406 -3.05023438 3.28585938 -3.875 3.25 C-5.08736328 3.20939453 -5.08736328 3.20939453 -6.32421875 3.16796875 C-7.24654297 3.11576172 -7.24654297 3.11576172 -8.1875 3.0625 C-6.45706736 -0.39836529 -3.47359009 -0.0569441 0 0 Z " fill="#3AA1CC" transform="translate(207.1875,171.9375)"/>
<path d="M0 0 C-2.35277269 2.72426311 -4.62496331 3.8141763 -8 5 C-8 4.34 -8 3.68 -8 3 C-8.66 2.67 -9.32 2.34 -10 2 C-6.49223216 0.39644899 -3.85645121 -0.22036864 0 0 Z " fill="#1D68A8" transform="translate(385,464)"/>
<path d="M0 0 C2.31 0.33 4.62 0.66 7 1 C7.33 1.99 7.66 2.98 8 4 C7.34 4 6.68 4 6 4 C5.01 5.485 5.01 5.485 4 7 C2.02 3.535 2.02 3.535 0 0 Z " fill="#499CC1" transform="translate(233,230)"/>
<path d="M0 0 C-0.66 0 -1.32 0 -2 0 C-2 0.66 -2 1.32 -2 2 C-0.68 2 0.64 2 2 2 C2 2.66 2 3.32 2 4 C-1 5 -1 5 -3.6875 3.6875 C-4.450625 3.130625 -5.21375 2.57375 -6 2 C-6 1.34 -6 0.68 -6 0 C-3 -1 -3 -1 0 0 Z " fill="#3FAAD5" transform="translate(174,18)"/>
<path d="M0 0 C0.33 0.99 0.66 1.98 1 3 C-2.63 2.34 -6.26 1.68 -10 1 C-10 0.67 -10 0.34 -10 0 C-3.15175097 -1.40077821 -3.15175097 -1.40077821 0 0 Z " fill="#4A9FC2" transform="translate(202,497)"/>
<path d="M0 0 C1.258125 -0.020625 2.51625 -0.04125 3.8125 -0.0625 C4.52019531 -0.07410156 5.22789062 -0.08570313 5.95703125 -0.09765625 C8 0 8 0 11 1 C11 1.66 11 2.32 11 3 C9.741875 2.87625 8.48375 2.7525 7.1875 2.625 C6.12595703 2.52058594 6.12595703 2.52058594 5.04296875 2.4140625 C3 2 3 2 0 0 Z " fill="#50A1BE" transform="translate(181,494)"/>
<path d="M0 0 C1.61949011 2.57213134 2.04408751 3.67669159 1.625 6.75 C1.41875 7.4925 1.2125 8.235 1 9 C0.34 9 -0.32 9 -1 9 C-1.625 5.625 -1.625 5.625 -2 2 C-1.34 1.34 -0.68 0.68 0 0 Z " fill="#2484C1" transform="translate(302,235)"/>
<path d="M0 0 C2.86724686 0.57344937 3.8614515 0.8614515 6 3 C4.68 3 3.36 3 2 3 C1.34 3.66 0.68 4.32 0 5 C-1.32 3.68 -2.64 2.36 -4 1 C-2.68 1.33 -1.36 1.66 0 2 C0 1.34 0 0.68 0 0 Z " fill="#DBF6FB" transform="translate(272,215)"/>
<path d="M0 0 C-0.66 1.32 -1.32 2.64 -2 4 C-3.98 4 -5.96 4 -8 4 C-7.67 3.01 -7.34 2.02 -7 1 C-4.52260646 0.09162237 -2.66420516 0 0 0 Z " fill="#0B5CB6" transform="translate(440,92)"/>
<path d="M0 0 C2.33944736 0.28730055 4.6739143 0.61936779 7 1 C6.67 1.99 6.34 2.98 6 4 C3.625 4.1875 3.625 4.1875 1 4 C0.34 3.01 -0.32 2.02 -1 1 C-0.67 0.67 -0.34 0.34 0 0 Z " fill="#36A8D3" transform="translate(185,291)"/>
<path d="M0 0 C2.93200474 2.85276137 5.64315404 5.65079784 8 9 C7.01 9 6.02 9 5 9 C5 8.34 5 7.68 5 7 C4.34 7 3.68 7 3 7 C0 2.61538462 0 2.61538462 0 0 Z " fill="#5DB0C8" transform="translate(167,273)"/>
<path d="M0 0 C0.66 0.33 1.32 0.66 2 1 C2 1.66 2 2.32 2 3 C1.01 3.33 0.02 3.66 -1 4 C-2.66710346 5.49985609 -2.66710346 5.49985609 -4 7 C-4.33 6.34 -4.66 5.68 -5 5 C-4 2 -4 2 -2.0625 0.75 C-1.381875 0.5025 -0.70125 0.255 0 0 Z " fill="#1E75BA" transform="translate(354,232)"/>
<path d="M0 0 C2.31 0.66 4.62 1.32 7 2 C7 3.65 7 5.3 7 7 C5.83040013 6.02433888 4.66438823 5.044375 3.5 4.0625 C2.8503125 3.51722656 2.200625 2.97195312 1.53125 2.41015625 C1.0259375 1.94480469 0.520625 1.47945312 0 1 C0 0.67 0 0.34 0 0 Z " fill="#56A2C4" transform="translate(220,217)"/>
<path d="M0 0 C0.99 0.33 1.98 0.66 3 1 C-0.465 3.97 -0.465 3.97 -4 7 C-4.66 6.67 -5.32 6.34 -6 6 C-4.6875 4 -4.6875 4 -3 2 C-2.01 2 -1.02 2 0 2 C0 1.34 0 0.68 0 0 Z " fill="#1F5D9B" transform="translate(408,445)"/>
<path d="M0 0 C1.32 1.32 2.64 2.64 4 4 C3.67 4.66 3.34 5.32 3 6 C2.01 5.67 1.02 5.34 0 5 C0 3.35 0 1.7 0 0 Z " fill="#1165B6" transform="translate(408,439)"/>
<path d="M0 0 C-3.83325617 2.70582788 -6.32538149 3.32613618 -11 3 C-9.66666667 2.33333333 -8.33333333 1.66666667 -7 1 C-6.319375 0.608125 -5.63875 0.21625 -4.9375 -0.1875 C-3 -1 -3 -1 0 0 Z " fill="#54A4C4" transform="translate(225,287)"/>
<path d="M0 0 C1.32 0.33 2.64 0.66 4 1 C4 2.32 4 3.64 4 5 C2.68 4.67 1.36 4.34 0 4 C0 2.68 0 1.36 0 0 Z " fill="#EEFDFE" transform="translate(172,275)"/>
<path d="M0 0 C0.66 0 1.32 0 2 0 C2 0.99 2 1.98 2 3 C2.66 3 3.32 3 4 3 C4 5.31 4 7.62 4 10 C1.81024227 6.71536341 1.00193437 3.79303725 0 0 Z " fill="#E2F8FC" transform="translate(247,240)"/>
<path d="M0 0 C1.98 0 3.96 0 6 0 C5.01 0.495 5.01 0.495 4 1 C4.66 1.99 5.32 2.98 6 4 C5.67 4.99 5.34 5.98 5 7 C3.35 4.69 1.7 2.38 0 0 Z " fill="#D9F5FB" transform="translate(241,233)"/>
<path d="M0 0 C1.32 0.66 2.64 1.32 4 2 C3.34 3.32 2.68 4.64 2 6 C0.68 4.68 -0.64 3.36 -2 2 C-1.34 1.34 -0.68 0.68 0 0 Z " fill="#2E9DD2" transform="translate(228,216)"/>
<path d="M0 0 C0.66 0.33 1.32 0.66 2 1 C2.59355614 3.64860427 2.74209269 6.29197322 3 9 C0.86928411 6.40608501 -0.53582673 4.36525621 -1 1 C-0.67 0.67 -0.34 0.34 0 0 Z " fill="#337DB5" transform="translate(334,328)"/>
<path d="M0 0 C0.99 0 1.98 0 3 0 C1.87548273 2.9719385 0.77706209 5.33440687 -1 8 C-1.04241723 5.66705225 -1.04092937 3.33297433 -1 1 C-0.67 0.67 -0.34 0.34 0 0 Z " fill="#DFFAFD" transform="translate(259,233)"/>
<path d="M0 0 C1.9375 0.3125 1.9375 0.3125 4 1 C4.33 1.99 4.66 2.98 5 4 C4.01 4.33 3.02 4.66 2 5 C1.01 4.01 0.02 3.02 -1 2 C-0.67 1.34 -0.34 0.68 0 0 Z " fill="#45A8D0" transform="translate(192,168)"/>
<path d="M0 0 C0 0.66 0 1.32 0 2 C-4.625 4.125 -4.625 4.125 -8 3 C-5.48696401 0.48696401 -3.51117809 0 0 0 Z M-11 5 C-9 6 -9 6 -9 6 Z " fill="#4ABFD6" transform="translate(110,50)"/>
</svg>
